<?xml version="1.0" encoding="UTF-8" standalone="no"?>
<!DOCTYPE svg PUBLIC "-//W3C//DTD SVG 1.1//EN"
 "http://www.w3.org/Graphics/SVG/1.1/DTD/svg11.dtd">
<!-- Generated by graphviz version 2.43.0 (0)
 -->
<!-- Pages: 1 -->
<svg width="2256pt" height="558pt"
 viewBox="0.00 0.00 2256.00 558.00" xmlns="http://www.w3.org/2000/svg" xmlns:xlink="http://www.w3.org/1999/xlink">
<g id="graph0" class="graph" transform="scale(1 1) rotate(0) translate(4 554)">
<polygon fill="white" stroke="transparent" points="-4,4 -4,-554 2252,-554 2252,4 -4,4"/>
<!-- node0x5e6814ef5fb0 -->
<g id="node1" class="node">
<title>node0x5e6814ef5fb0</title>
<polygon fill="none" stroke="black" points="1080,-550 1026,-550 1026,-514 1080,-514 1080,-550"/>
<text text-anchor="middle" x="1053" y="-528.3" font-family="Times,serif" font-size="14.00">LIST</text>
</g>
<!-- node0x5e6814ef5f60 -->
<g id="node2" class="node">
<title>node0x5e6814ef5f60</title>
<polygon fill="none" stroke="black" points="1010,-478 912,-478 912,-442 1010,-442 1010,-478"/>
<text text-anchor="middle" x="961" y="-456.3" font-family="Times,serif" font-size="14.00">FUNCTION</text>
</g>
<!-- node0x5e6814ef5fb0&#45;&#45;node0x5e6814ef5f60 -->
<g id="edge1" class="edge">
<title>node0x5e6814ef5fb0&#45;&#45;node0x5e6814ef5f60</title>
<path fill="none" stroke="black" d="M1030.26,-513.7C1016,-502.85 997.69,-488.92 983.48,-478.1"/>
</g>
<!-- node0x5e6814ef64e0 -->
<g id="node36" class="node">
<title>node0x5e6814ef64e0</title>
<polygon fill="none" stroke="black" points="1282,-478 1184,-478 1184,-442 1282,-442 1282,-478"/>
<text text-anchor="middle" x="1233" y="-456.3" font-family="Times,serif" font-size="14.00">FUNCTION</text>
</g>
<!-- node0x5e6814ef5fb0&#45;&#45;node0x5e6814ef64e0 -->
<g id="edge35" class="edge">
<title>node0x5e6814ef5fb0&#45;&#45;node0x5e6814ef64e0</title>
<path fill="none" stroke="black" d="M1080.34,-520.37C1109.25,-509.12 1155.3,-491.22 1189.27,-478.01"/>
</g>
<!-- node0x5e6814ef5330 -->
<g id="node3" class="node">
<title>node0x5e6814ef5330</title>
<polygon fill="none" stroke="black" points="876,-406 770,-406 770,-368 876,-368 876,-406"/>
<text text-anchor="middle" x="823" y="-390.8" font-family="Times,serif" font-size="14.00">IDENTIFIER</text>
<text text-anchor="middle" x="823" y="-375.8" font-family="Times,serif" font-size="14.00">main</text>
</g>
<!-- node0x5e6814ef5f60&#45;&#45;node0x5e6814ef5330 -->
<g id="edge2" class="edge">
<title>node0x5e6814ef5f60&#45;&#45;node0x5e6814ef5330</title>
<path fill="none" stroke="black" d="M927.95,-441.99C906.89,-431.16 879.65,-417.15 858.2,-406.11"/>
</g>
<!-- node0x5e6814ef53a0 -->
<g id="node4" class="node">
<title>node0x5e6814ef53a0</title>
<polygon fill="none" stroke="black" points="948,-405 894,-405 894,-369 948,-369 948,-405"/>
<text text-anchor="middle" x="921" y="-383.3" font-family="Times,serif" font-size="14.00">LIST</text>
</g>
<!-- node0x5e6814ef5f60&#45;&#45;node0x5e6814ef53a0 -->
<g id="edge3" class="edge">
<title>node0x5e6814ef5f60&#45;&#45;node0x5e6814ef53a0</title>
<path fill="none" stroke="black" d="M951.32,-441.81C945.03,-430.65 936.86,-416.16 930.59,-405.03"/>
</g>
<!-- node0x5e6814ef5f10 -->
<g id="node5" class="node">
<title>node0x5e6814ef5f10</title>
<polygon fill="none" stroke="black" points="1034,-405 966,-405 966,-369 1034,-369 1034,-405"/>
<text text-anchor="middle" x="1000" y="-383.3" font-family="Times,serif" font-size="14.00">BLOCK</text>
</g>
<!-- node0x5e6814ef5f60&#45;&#45;node0x5e6814ef5f10 -->
<g id="edge4" class="edge">
<title>node0x5e6814ef5f60&#45;&#45;node0x5e6814ef5f10</title>
<path fill="none" stroke="black" d="M970.44,-441.81C976.57,-430.65 984.53,-416.16 990.65,-405.03"/>
</g>
<!-- node0x5e6814ef5520 -->
<g id="node6" class="node">
<title>node0x5e6814ef5520</title>
<polygon fill="none" stroke="black" points="328,-331 274,-331 274,-295 328,-295 328,-331"/>
<text text-anchor="middle" x="301" y="-309.3" font-family="Times,serif" font-size="14.00">LIST</text>
</g>
<!-- node0x5e6814ef5f10&#45;&#45;node0x5e6814ef5520 -->
<g id="edge5" class="edge">
<title>node0x5e6814ef5f10&#45;&#45;node0x5e6814ef5520</title>
<path fill="none" stroke="black" d="M965.58,-370.5C962.72,-369.54 959.83,-368.69 957,-368 834.6,-338.14 436.38,-319.66 328.28,-315.1"/>
</g>
<!-- node0x5e6814ef5740 -->
<g id="node12" class="node">
<title>node0x5e6814ef5740</title>
<polygon fill="none" stroke="black" points="1027,-331 973,-331 973,-295 1027,-295 1027,-331"/>
<text text-anchor="middle" x="1000" y="-309.3" font-family="Times,serif" font-size="14.00">LIST</text>
</g>
<!-- node0x5e6814ef5f10&#45;&#45;node0x5e6814ef5740 -->
<g id="edge11" class="edge">
<title>node0x5e6814ef5f10&#45;&#45;node0x5e6814ef5740</title>
<path fill="none" stroke="black" d="M1000,-368.94C1000,-357.63 1000,-342.83 1000,-331.44"/>
</g>
<!-- node0x5e6814ef5460 -->
<g id="node7" class="node">
<title>node0x5e6814ef5460</title>
<polygon fill="none" stroke="black" points="204,-258 150,-258 150,-222 204,-222 204,-258"/>
<text text-anchor="middle" x="177" y="-236.3" font-family="Times,serif" font-size="14.00">LIST</text>
</g>
<!-- node0x5e6814ef5520&#45;&#45;node0x5e6814ef5460 -->
<g id="edge6" class="edge">
<title>node0x5e6814ef5520&#45;&#45;node0x5e6814ef5460</title>
<path fill="none" stroke="black" d="M273.79,-296.42C253.11,-284.58 224.81,-268.37 204.15,-256.54"/>
</g>
<!-- node0x5e6814ef55e0 -->
<g id="node10" class="node">
<title>node0x5e6814ef55e0</title>
<polygon fill="none" stroke="black" points="328,-258 274,-258 274,-222 328,-222 328,-258"/>
<text text-anchor="middle" x="301" y="-236.3" font-family="Times,serif" font-size="14.00">LIST</text>
</g>
<!-- node0x5e6814ef5520&#45;&#45;node0x5e6814ef55e0 -->
<g id="edge9" class="edge">
<title>node0x5e6814ef5520&#45;&#45;node0x5e6814ef55e0</title>
<path fill="none" stroke="black" d="M301,-294.81C301,-283.65 301,-269.16 301,-258.03"/>
</g>
<!-- node0x5e6814ef53f0 -->
<g id="node8" class="node">
<title>node0x5e6814ef53f0</title>
<polygon fill="none" stroke="black" points="106,-186 0,-186 0,-148 106,-148 106,-186"/>
<text text-anchor="middle" x="53" y="-170.8" font-family="Times,serif" font-size="14.00">IDENTIFIER</text>
<text text-anchor="middle" x="53" y="-155.8" font-family="Times,serif" font-size="14.00">a</text>
</g>
<!-- node0x5e6814ef5460&#45;&#45;node0x5e6814ef53f0 -->
<g id="edge7" class="edge">
<title>node0x5e6814ef5460&#45;&#45;node0x5e6814ef53f0</title>
<path fill="none" stroke="black" d="M149.79,-223.42C130.54,-212.4 104.68,-197.59 84.53,-186.05"/>
</g>
<!-- node0x5e6814ef54b0 -->
<g id="node9" class="node">
<title>node0x5e6814ef54b0</title>
<polygon fill="none" stroke="black" points="230,-186 124,-186 124,-148 230,-148 230,-186"/>
<text text-anchor="middle" x="177" y="-170.8" font-family="Times,serif" font-size="14.00">IDENTIFIER</text>
<text text-anchor="middle" x="177" y="-155.8" font-family="Times,serif" font-size="14.00">b</text>
</g>
<!-- node0x5e6814ef5460&#45;&#45;node0x5e6814ef54b0 -->
<g id="edge8" class="edge">
<title>node0x5e6814ef5460&#45;&#45;node0x5e6814ef54b0</title>
<path fill="none" stroke="black" d="M177,-221.81C177,-210.98 177,-197.01 177,-186.02"/>
</g>
<!-- node0x5e6814ef5570 -->
<g id="node11" class="node">
<title>node0x5e6814ef5570</title>
<polygon fill="none" stroke="black" points="354,-186 248,-186 248,-148 354,-148 354,-186"/>
<text text-anchor="middle" x="301" y="-170.8" font-family="Times,serif" font-size="14.00">IDENTIFIER</text>
<text text-anchor="middle" x="301" y="-155.8" font-family="Times,serif" font-size="14.00">c</text>
</g>
<!-- node0x5e6814ef55e0&#45;&#45;node0x5e6814ef5570 -->
<g id="edge10" class="edge">
<title>node0x5e6814ef55e0&#45;&#45;node0x5e6814ef5570</title>
<path fill="none" stroke="black" d="M301,-221.81C301,-210.98 301,-197.01 301,-186.02"/>
</g>
<!-- node0x5e6814ef56f0 -->
<g id="node13" class="node">
<title>node0x5e6814ef56f0</title>
<polygon fill="none" stroke="black" points="683,-258 465,-258 465,-222 683,-222 683,-258"/>
<text text-anchor="middle" x="574" y="-236.3" font-family="Times,serif" font-size="14.00">ASSIGNMENT_STATEMENT</text>
</g>
<!-- node0x5e6814ef5740&#45;&#45;node0x5e6814ef56f0 -->
<g id="edge12" class="edge">
<title>node0x5e6814ef5740&#45;&#45;node0x5e6814ef56f0</title>
<path fill="none" stroke="black" d="M972.7,-307.45C914.12,-297.69 773.77,-274.29 676.28,-258.05"/>
</g>
<!-- node0x5e6814ef5850 -->
<g id="node16" class="node">
<title>node0x5e6814ef5850</title>
<polygon fill="none" stroke="black" points="981,-258 763,-258 763,-222 981,-222 981,-258"/>
<text text-anchor="middle" x="872" y="-236.3" font-family="Times,serif" font-size="14.00">ASSIGNMENT_STATEMENT</text>
</g>
<!-- node0x5e6814ef5740&#45;&#45;node0x5e6814ef5850 -->
<g id="edge15" class="edge">
<title>node0x5e6814ef5740&#45;&#45;node0x5e6814ef5850</title>
<path fill="none" stroke="black" d="M972.85,-296.94C952.31,-285.55 924.07,-269.88 902.7,-258.03"/>
</g>
<!-- node0x5e6814ef5bf0 -->
<g id="node19" class="node">
<title>node0x5e6814ef5bf0</title>
<polygon fill="none" stroke="black" points="1194.5,-258 1063.5,-258 1063.5,-222 1194.5,-222 1194.5,-258"/>
<text text-anchor="middle" x="1129" y="-236.3" font-family="Times,serif" font-size="14.00">IF_STATEMENT</text>
</g>
<!-- node0x5e6814ef5740&#45;&#45;node0x5e6814ef5bf0 -->
<g id="edge18" class="edge">
<title>node0x5e6814ef5740&#45;&#45;node0x5e6814ef5bf0</title>
<path fill="none" stroke="black" d="M1027.04,-297.12C1047.73,-285.73 1076.28,-270.02 1097.91,-258.11"/>
</g>
<!-- node0x5e6814ef5ec0 -->
<g id="node29" class="node">
<title>node0x5e6814ef5ec0</title>
<polygon fill="none" stroke="black" points="1561,-258 1381,-258 1381,-222 1561,-222 1561,-258"/>
<text text-anchor="middle" x="1471" y="-236.3" font-family="Times,serif" font-size="14.00">RETURN_STATEMENT</text>
</g>
<!-- node0x5e6814ef5740&#45;&#45;node0x5e6814ef5ec0 -->
<g id="edge28" class="edge">
<title>node0x5e6814ef5740&#45;&#45;node0x5e6814ef5ec0</title>
<path fill="none" stroke="black" d="M1027.25,-306.55C1046.44,-302.8 1072.74,-297.82 1096,-294 1193,-278.06 1304.59,-262.66 1380.66,-252.61"/>
</g>
<!-- node0x5e6814ef5630 -->
<g id="node14" class="node">
<title>node0x5e6814ef5630</title>
<polygon fill="none" stroke="black" points="478,-186 372,-186 372,-148 478,-148 478,-186"/>
<text text-anchor="middle" x="425" y="-170.8" font-family="Times,serif" font-size="14.00">IDENTIFIER</text>
<text text-anchor="middle" x="425" y="-155.8" font-family="Times,serif" font-size="14.00">a</text>
</g>
<!-- node0x5e6814ef56f0&#45;&#45;node0x5e6814ef5630 -->
<g id="edge13" class="edge">
<title>node0x5e6814ef56f0&#45;&#45;node0x5e6814ef5630</title>
<path fill="none" stroke="black" d="M538.31,-221.99C515.58,-211.16 486.17,-197.15 463,-186.11"/>
</g>
<!-- node0x5e6814ef56a0 -->
<g id="node15" class="node">
<title>node0x5e6814ef56a0</title>
<polygon fill="none" stroke="black" points="652,-186 496,-186 496,-148 652,-148 652,-186"/>
<text text-anchor="middle" x="574" y="-170.8" font-family="Times,serif" font-size="14.00">NUMBER_LITERAL</text>
<text text-anchor="middle" x="574" y="-155.8" font-family="Times,serif" font-size="14.00">6</text>
</g>
<!-- node0x5e6814ef56f0&#45;&#45;node0x5e6814ef56a0 -->
<g id="edge14" class="edge">
<title>node0x5e6814ef56f0&#45;&#45;node0x5e6814ef56a0</title>
<path fill="none" stroke="black" d="M574,-221.81C574,-210.98 574,-197.01 574,-186.02"/>
</g>
<!-- node0x5e6814ef5790 -->
<g id="node17" class="node">
<title>node0x5e6814ef5790</title>
<polygon fill="none" stroke="black" points="776,-186 670,-186 670,-148 776,-148 776,-186"/>
<text text-anchor="middle" x="723" y="-170.8" font-family="Times,serif" font-size="14.00">IDENTIFIER</text>
<text text-anchor="middle" x="723" y="-155.8" font-family="Times,serif" font-size="14.00">b</text>
</g>
<!-- node0x5e6814ef5850&#45;&#45;node0x5e6814ef5790 -->
<g id="edge16" class="edge">
<title>node0x5e6814ef5850&#45;&#45;node0x5e6814ef5790</title>
<path fill="none" stroke="black" d="M836.31,-221.99C813.58,-211.16 784.17,-197.15 761,-186.11"/>
</g>
<!-- node0x5e6814ef5800 -->
<g id="node18" class="node">
<title>node0x5e6814ef5800</title>
<polygon fill="none" stroke="black" points="950,-186 794,-186 794,-148 950,-148 950,-186"/>
<text text-anchor="middle" x="872" y="-170.8" font-family="Times,serif" font-size="14.00">NUMBER_LITERAL</text>
<text text-anchor="middle" x="872" y="-155.8" font-family="Times,serif" font-size="14.00">8</text>
</g>
<!-- node0x5e6814ef5850&#45;&#45;node0x5e6814ef5800 -->
<g id="edge17" class="edge">
<title>node0x5e6814ef5850&#45;&#45;node0x5e6814ef5800</title>
<path fill="none" stroke="black" d="M872,-221.81C872,-210.98 872,-197.01 872,-186.02"/>
</g>
<!-- node0x5e6814ef5980 -->
<g id="node20" class="node">
<title>node0x5e6814ef5980</title>
<polygon fill="none" stroke="black" points="1066,-186 968,-186 968,-148 1066,-148 1066,-186"/>
<text text-anchor="middle" x="1017" y="-170.8" font-family="Times,serif" font-size="14.00">OPERATOR</text>
<text text-anchor="middle" x="1017" y="-155.8" font-family="Times,serif" font-size="14.00">&gt;</text>
</g>
<!-- node0x5e6814ef5bf0&#45;&#45;node0x5e6814ef5980 -->
<g id="edge19" class="edge">
<title>node0x5e6814ef5bf0&#45;&#45;node0x5e6814ef5980</title>
<path fill="none" stroke="black" d="M1102.17,-221.99C1085.09,-211.16 1062.98,-197.15 1045.57,-186.11"/>
</g>
<!-- node0x5e6814ef5a90 -->
<g id="node23" class="node">
<title>node0x5e6814ef5a90</title>
<polygon fill="none" stroke="black" points="1302,-185 1084,-185 1084,-149 1302,-149 1302,-185"/>
<text text-anchor="middle" x="1193" y="-163.3" font-family="Times,serif" font-size="14.00">ASSIGNMENT_STATEMENT</text>
</g>
<!-- node0x5e6814ef5bf0&#45;&#45;node0x5e6814ef5a90 -->
<g id="edge22" class="edge">
<title>node0x5e6814ef5bf0&#45;&#45;node0x5e6814ef5a90</title>
<path fill="none" stroke="black" d="M1144.49,-221.81C1154.56,-210.65 1167.62,-196.16 1177.65,-185.03"/>
</g>
<!-- node0x5e6814ef5ba0 -->
<g id="node26" class="node">
<title>node0x5e6814ef5ba0</title>
<polygon fill="none" stroke="black" points="1538,-185 1320,-185 1320,-149 1538,-149 1538,-185"/>
<text text-anchor="middle" x="1429" y="-163.3" font-family="Times,serif" font-size="14.00">ASSIGNMENT_STATEMENT</text>
</g>
<!-- node0x5e6814ef5bf0&#45;&#45;node0x5e6814ef5ba0 -->
<g id="edge25" class="edge">
<title>node0x5e6814ef5bf0&#45;&#45;node0x5e6814ef5ba0</title>
<path fill="none" stroke="black" d="M1194.84,-223.42C1242.79,-212.07 1307.7,-196.71 1357.02,-185.04"/>
</g>
<!-- node0x5e6814ef58a0 -->
<g id="node21" class="node">
<title>node0x5e6814ef58a0</title>
<polygon fill="none" stroke="black" points="892,-112 786,-112 786,-74 892,-74 892,-112"/>
<text text-anchor="middle" x="839" y="-96.8" font-family="Times,serif" font-size="14.00">IDENTIFIER</text>
<text text-anchor="middle" x="839" y="-81.8" font-family="Times,serif" font-size="14.00">a</text>
</g>
<!-- node0x5e6814ef5980&#45;&#45;node0x5e6814ef58a0 -->
<g id="edge20" class="edge">
<title>node0x5e6814ef5980&#45;&#45;node0x5e6814ef58a0</title>
<path fill="none" stroke="black" d="M972.08,-147.83C945,-136.88 910.62,-122.97 883.59,-112.04"/>
</g>
<!-- node0x5e6814ef5910 -->
<g id="node22" class="node">
<title>node0x5e6814ef5910</title>
<polygon fill="none" stroke="black" points="1016,-112 910,-112 910,-74 1016,-74 1016,-112"/>
<text text-anchor="middle" x="963" y="-96.8" font-family="Times,serif" font-size="14.00">IDENTIFIER</text>
<text text-anchor="middle" x="963" y="-81.8" font-family="Times,serif" font-size="14.00">b</text>
</g>
<!-- node0x5e6814ef5980&#45;&#45;node0x5e6814ef5910 -->
<g id="edge21" class="edge">
<title>node0x5e6814ef5980&#45;&#45;node0x5e6814ef5910</title>
<path fill="none" stroke="black" d="M1003.37,-147.83C995.25,-137 984.97,-123.29 976.81,-112.41"/>
</g>
<!-- node0x5e6814ef59d0 -->
<g id="node24" class="node">
<title>node0x5e6814ef59d0</title>
<polygon fill="none" stroke="black" points="1140,-112 1034,-112 1034,-74 1140,-74 1140,-112"/>
<text text-anchor="middle" x="1087" y="-96.8" font-family="Times,serif" font-size="14.00">IDENTIFIER</text>
<text text-anchor="middle" x="1087" y="-81.8" font-family="Times,serif" font-size="14.00">c</text>
</g>
<!-- node0x5e6814ef5a90&#45;&#45;node0x5e6814ef59d0 -->
<g id="edge23" class="edge">
<title>node0x5e6814ef5a90&#45;&#45;node0x5e6814ef59d0</title>
<path fill="none" stroke="black" d="M1167.88,-148.94C1151.59,-137.88 1130.4,-123.48 1113.79,-112.2"/>
</g>
<!-- node0x5e6814ef5a40 -->
<g id="node25" class="node">
<title>node0x5e6814ef5a40</title>
<polygon fill="none" stroke="black" points="1314,-112 1158,-112 1158,-74 1314,-74 1314,-112"/>
<text text-anchor="middle" x="1236" y="-96.8" font-family="Times,serif" font-size="14.00">NUMBER_LITERAL</text>
<text text-anchor="middle" x="1236" y="-81.8" font-family="Times,serif" font-size="14.00">2</text>
</g>
<!-- node0x5e6814ef5a90&#45;&#45;node0x5e6814ef5a40 -->
<g id="edge24" class="edge">
<title>node0x5e6814ef5a90&#45;&#45;node0x5e6814ef5a40</title>
<path fill="none" stroke="black" d="M1203.19,-148.94C1209.8,-137.88 1218.39,-123.48 1225.13,-112.2"/>
</g>
<!-- node0x5e6814ef5ae0 -->
<g id="node27" class="node">
<title>node0x5e6814ef5ae0</title>
<polygon fill="none" stroke="black" points="1438,-112 1332,-112 1332,-74 1438,-74 1438,-112"/>
<text text-anchor="middle" x="1385" y="-96.8" font-family="Times,serif" font-size="14.00">IDENTIFIER</text>
<text text-anchor="middle" x="1385" y="-81.8" font-family="Times,serif" font-size="14.00">c</text>
</g>
<!-- node0x5e6814ef5ba0&#45;&#45;node0x5e6814ef5ae0 -->
<g id="edge26" class="edge">
<title>node0x5e6814ef5ba0&#45;&#45;node0x5e6814ef5ae0</title>
<path fill="none" stroke="black" d="M1418.57,-148.94C1411.81,-137.88 1403.02,-123.48 1396.12,-112.2"/>
</g>
<!-- node0x5e6814ef5b50 -->
<g id="node28" class="node">
<title>node0x5e6814ef5b50</title>
<polygon fill="none" stroke="black" points="1612,-112 1456,-112 1456,-74 1612,-74 1612,-112"/>
<text text-anchor="middle" x="1534" y="-96.8" font-family="Times,serif" font-size="14.00">NUMBER_LITERAL</text>
<text text-anchor="middle" x="1534" y="-81.8" font-family="Times,serif" font-size="14.00">6</text>
</g>
<!-- node0x5e6814ef5ba0&#45;&#45;node0x5e6814ef5b50 -->
<g id="edge27" class="edge">
<title>node0x5e6814ef5ba0&#45;&#45;node0x5e6814ef5b50</title>
<path fill="none" stroke="black" d="M1453.88,-148.94C1470.01,-137.88 1491.01,-123.48 1507.46,-112.2"/>
</g>
<!-- node0x5e6814ef5e90 -->
<g id="node30" class="node">
<title>node0x5e6814ef5e90</title>
<polygon fill="none" stroke="black" points="1754.5,-185 1611.5,-185 1611.5,-149 1754.5,-149 1754.5,-185"/>
<text text-anchor="middle" x="1683" y="-163.3" font-family="Times,serif" font-size="14.00">FUNCTION_CALL</text>
</g>
<!-- node0x5e6814ef5ec0&#45;&#45;node0x5e6814ef5e90 -->
<g id="edge29" class="edge">
<title>node0x5e6814ef5ec0&#45;&#45;node0x5e6814ef5e90</title>
<path fill="none" stroke="black" d="M1521.78,-221.99C1555.1,-210.83 1598.52,-196.29 1631.9,-185.11"/>
</g>
<!-- node0x5e6814ef5c70 -->
<g id="node31" class="node">
<title>node0x5e6814ef5c70</title>
<polygon fill="none" stroke="black" points="1736,-112 1630,-112 1630,-74 1736,-74 1736,-112"/>
<text text-anchor="middle" x="1683" y="-96.8" font-family="Times,serif" font-size="14.00">IDENTIFIER</text>
<text text-anchor="middle" x="1683" y="-81.8" font-family="Times,serif" font-size="14.00">other</text>
</g>
<!-- node0x5e6814ef5e90&#45;&#45;node0x5e6814ef5c70 -->
<g id="edge30" class="edge">
<title>node0x5e6814ef5e90&#45;&#45;node0x5e6814ef5c70</title>
<path fill="none" stroke="black" d="M1683,-148.94C1683,-137.88 1683,-123.48 1683,-112.2"/>
</g>
<!-- node0x5e6814ef5d30 -->
<g id="node32" class="node">
<title>node0x5e6814ef5d30</title>
<polygon fill="none" stroke="black" points="1808,-111 1754,-111 1754,-75 1808,-75 1808,-111"/>
<text text-anchor="middle" x="1781" y="-89.3" font-family="Times,serif" font-size="14.00">LIST</text>
</g>
<!-- node0x5e6814ef5e90&#45;&#45;node0x5e6814ef5d30 -->
<g id="edge31" class="edge">
<title>node0x5e6814ef5e90&#45;&#45;node0x5e6814ef5d30</title>
<path fill="none" stroke="black" d="M1706.22,-148.94C1721.73,-137.54 1742.06,-122.61 1757.6,-111.19"/>
</g>
<!-- node0x5e6814ef5cc0 -->
<g id="node33" class="node">
<title>node0x5e6814ef5cc0</title>
<polygon fill="none" stroke="black" points="1702,-38 1596,-38 1596,0 1702,0 1702,-38"/>
<text text-anchor="middle" x="1649" y="-22.8" font-family="Times,serif" font-size="14.00">IDENTIFIER</text>
<text text-anchor="middle" x="1649" y="-7.8" font-family="Times,serif" font-size="14.00">a</text>
</g>
<!-- node0x5e6814ef5d30&#45;&#45;node0x5e6814ef5cc0 -->
<g id="edge32" class="edge">
<title>node0x5e6814ef5d30&#45;&#45;node0x5e6814ef5cc0</title>
<path fill="none" stroke="black" d="M1753.97,-77.26C1733.15,-65.9 1704.28,-50.15 1682.08,-38.04"/>
</g>
<!-- node0x5e6814ef5d80 -->
<g id="node34" class="node">
<title>node0x5e6814ef5d80</title>
<polygon fill="none" stroke="black" points="1826,-38 1720,-38 1720,0 1826,0 1826,-38"/>
<text text-anchor="middle" x="1773" y="-22.8" font-family="Times,serif" font-size="14.00">IDENTIFIER</text>
<text text-anchor="middle" x="1773" y="-7.8" font-family="Times,serif" font-size="14.00">b</text>
</g>
<!-- node0x5e6814ef5d30&#45;&#45;node0x5e6814ef5d80 -->
<g id="edge33" class="edge">
<title>node0x5e6814ef5d30&#45;&#45;node0x5e6814ef5d80</title>
<path fill="none" stroke="black" d="M1779.1,-74.94C1777.88,-63.88 1776.28,-49.48 1775.02,-38.2"/>
</g>
<!-- node0x5e6814ef5df0 -->
<g id="node35" class="node">
<title>node0x5e6814ef5df0</title>
<polygon fill="none" stroke="black" points="1950,-38 1844,-38 1844,0 1950,0 1950,-38"/>
<text text-anchor="middle" x="1897" y="-22.8" font-family="Times,serif" font-size="14.00">IDENTIFIER</text>
<text text-anchor="middle" x="1897" y="-7.8" font-family="Times,serif" font-size="14.00">c</text>
</g>
<!-- node0x5e6814ef5d30&#45;&#45;node0x5e6814ef5df0 -->
<g id="edge34" class="edge">
<title>node0x5e6814ef5d30&#45;&#45;node0x5e6814ef5df0</title>
<path fill="none" stroke="black" d="M1808.2,-75.12C1826.14,-63.98 1849.63,-49.4 1867.95,-38.03"/>
</g>
<!-- node0x5e6814ef6000 -->
<g id="node37" class="node">
<title>node0x5e6814ef6000</title>
<polygon fill="none" stroke="black" points="1237,-406 1131,-406 1131,-368 1237,-368 1237,-406"/>
<text text-anchor="middle" x="1184" y="-390.8" font-family="Times,serif" font-size="14.00">IDENTIFIER</text>
<text text-anchor="middle" x="1184" y="-375.8" font-family="Times,serif" font-size="14.00">other</text>
</g>
<!-- node0x5e6814ef64e0&#45;&#45;node0x5e6814ef6000 -->
<g id="edge36" class="edge">
<title>node0x5e6814ef64e0&#45;&#45;node0x5e6814ef6000</title>
<path fill="none" stroke="black" d="M1221.14,-441.81C1213.66,-430.98 1204.02,-417.01 1196.44,-406.02"/>
</g>
<!-- node0x5e6814ef60e0 -->
<g id="node38" class="node">
<title>node0x5e6814ef60e0</title>
<polygon fill="none" stroke="black" points="1309,-405 1255,-405 1255,-369 1309,-369 1309,-405"/>
<text text-anchor="middle" x="1282" y="-383.3" font-family="Times,serif" font-size="14.00">LIST</text>
</g>
<!-- node0x5e6814ef64e0&#45;&#45;node0x5e6814ef60e0 -->
<g id="edge37" class="edge">
<title>node0x5e6814ef64e0&#45;&#45;node0x5e6814ef60e0</title>
<path fill="none" stroke="black" d="M1244.86,-441.81C1252.57,-430.65 1262.57,-416.16 1270.25,-405.03"/>
</g>
<!-- node0x5e6814ef6490 -->
<g id="node42" class="node">
<title>node0x5e6814ef6490</title>
<polygon fill="none" stroke="black" points="1481,-405 1413,-405 1413,-369 1481,-369 1481,-405"/>
<text text-anchor="middle" x="1447" y="-383.3" font-family="Times,serif" font-size="14.00">BLOCK</text>
</g>
<!-- node0x5e6814ef64e0&#45;&#45;node0x5e6814ef6490 -->
<g id="edge41" class="edge">
<title>node0x5e6814ef64e0&#45;&#45;node0x5e6814ef6490</title>
<path fill="none" stroke="black" d="M1282.1,-442.71C1322.08,-429.45 1377.49,-411.06 1412.8,-399.35"/>
</g>
<!-- node0x5e6814ef6070 -->
<g id="node39" class="node">
<title>node0x5e6814ef6070</title>
<polygon fill="none" stroke="black" points="1211,-332 1105,-332 1105,-294 1211,-294 1211,-332"/>
<text text-anchor="middle" x="1158" y="-316.8" font-family="Times,serif" font-size="14.00">IDENTIFIER</text>
<text text-anchor="middle" x="1158" y="-301.8" font-family="Times,serif" font-size="14.00">x</text>
</g>
<!-- node0x5e6814ef60e0&#45;&#45;node0x5e6814ef6070 -->
<g id="edge38" class="edge">
<title>node0x5e6814ef60e0&#45;&#45;node0x5e6814ef6070</title>
<path fill="none" stroke="black" d="M1254.79,-370.2C1235.4,-358.94 1209.29,-343.78 1189.08,-332.05"/>
</g>
<!-- node0x5e6814ef6130 -->
<g id="node40" class="node">
<title>node0x5e6814ef6130</title>
<polygon fill="none" stroke="black" points="1335,-332 1229,-332 1229,-294 1335,-294 1335,-332"/>
<text text-anchor="middle" x="1282" y="-316.8" font-family="Times,serif" font-size="14.00">IDENTIFIER</text>
<text text-anchor="middle" x="1282" y="-301.8" font-family="Times,serif" font-size="14.00">y</text>
</g>
<!-- node0x5e6814ef60e0&#45;&#45;node0x5e6814ef6130 -->
<g id="edge39" class="edge">
<title>node0x5e6814ef60e0&#45;&#45;node0x5e6814ef6130</title>
<path fill="none" stroke="black" d="M1282,-368.94C1282,-357.88 1282,-343.48 1282,-332.2"/>
</g>
<!-- node0x5e6814ef61a0 -->
<g id="node41" class="node">
<title>node0x5e6814ef61a0</title>
<polygon fill="none" stroke="black" points="1459,-332 1353,-332 1353,-294 1459,-294 1459,-332"/>
<text text-anchor="middle" x="1406" y="-316.8" font-family="Times,serif" font-size="14.00">IDENTIFIER</text>
<text text-anchor="middle" x="1406" y="-301.8" font-family="Times,serif" font-size="14.00">z</text>
</g>
<!-- node0x5e6814ef60e0&#45;&#45;node0x5e6814ef61a0 -->
<g id="edge40" class="edge">
<title>node0x5e6814ef60e0&#45;&#45;node0x5e6814ef61a0</title>
<path fill="none" stroke="black" d="M1309.21,-370.2C1328.6,-358.94 1354.71,-343.78 1374.92,-332.05"/>
</g>
<!-- node0x5e6814ef6440 -->
<g id="node43" class="node">
<title>node0x5e6814ef6440</title>
<polygon fill="none" stroke="black" points="1561,-331 1507,-331 1507,-295 1561,-295 1561,-331"/>
<text text-anchor="middle" x="1534" y="-309.3" font-family="Times,serif" font-size="14.00">LIST</text>
</g>
<!-- node0x5e6814ef6490&#45;&#45;node0x5e6814ef6440 -->
<g id="edge42" class="edge">
<title>node0x5e6814ef6490&#45;&#45;node0x5e6814ef6440</title>
<path fill="none" stroke="black" d="M1467.62,-368.94C1481.39,-357.54 1499.43,-342.61 1513.23,-331.19"/>
</g>
<!-- node0x5e6814ef63f0 -->
<g id="node44" class="node">
<title>node0x5e6814ef63f0</title>
<polygon fill="none" stroke="black" points="1850,-258 1670,-258 1670,-222 1850,-222 1850,-258"/>
<text text-anchor="middle" x="1760" y="-236.3" font-family="Times,serif" font-size="14.00">RETURN_STATEMENT</text>
</g>
<!-- node0x5e6814ef6440&#45;&#45;node0x5e6814ef63f0 -->
<g id="edge43" class="edge">
<title>node0x5e6814ef6440&#45;&#45;node0x5e6814ef63f0</title>
<path fill="none" stroke="black" d="M1561.26,-303.44C1596.83,-292.26 1659.91,-272.45 1705.47,-258.13"/>
</g>
<!-- node0x5e6814ef63a0 -->
<g id="node45" class="node">
<title>node0x5e6814ef63a0</title>
<polygon fill="none" stroke="black" points="1943,-186 1845,-186 1845,-148 1943,-148 1943,-186"/>
<text text-anchor="middle" x="1894" y="-170.8" font-family="Times,serif" font-size="14.00">OPERATOR</text>
<text text-anchor="middle" x="1894" y="-155.8" font-family="Times,serif" font-size="14.00">+</text>
</g>
<!-- node0x5e6814ef63f0&#45;&#45;node0x5e6814ef63a0 -->
<g id="edge44" class="edge">
<title>node0x5e6814ef63f0&#45;&#45;node0x5e6814ef63a0</title>
<path fill="none" stroke="black" d="M1792.1,-221.99C1812.54,-211.16 1838.99,-197.15 1859.82,-186.11"/>
</g>
<!-- node0x5e6814ef6240 -->
<g id="node46" class="node">
<title>node0x5e6814ef6240</title>
<polygon fill="none" stroke="black" points="1947,-112 1841,-112 1841,-74 1947,-74 1947,-112"/>
<text text-anchor="middle" x="1894" y="-96.8" font-family="Times,serif" font-size="14.00">IDENTIFIER</text>
<text text-anchor="middle" x="1894" y="-81.8" font-family="Times,serif" font-size="14.00">x</text>
</g>
<!-- node0x5e6814ef63a0&#45;&#45;node0x5e6814ef6240 -->
<g id="edge45" class="edge">
<title>node0x5e6814ef63a0&#45;&#45;node0x5e6814ef6240</title>
<path fill="none" stroke="black" d="M1894,-147.83C1894,-137 1894,-123.29 1894,-112.41"/>
</g>
<!-- node0x5e6814ef6350 -->
<g id="node47" class="node">
<title>node0x5e6814ef6350</title>
<polygon fill="none" stroke="black" points="2070,-112 1972,-112 1972,-74 2070,-74 2070,-112"/>
<text text-anchor="middle" x="2021" y="-96.8" font-family="Times,serif" font-size="14.00">OPERATOR</text>
<text text-anchor="middle" x="2021" y="-81.8" font-family="Times,serif" font-size="14.00">*</text>
</g>
<!-- node0x5e6814ef63a0&#45;&#45;node0x5e6814ef6350 -->
<g id="edge46" class="edge">
<title>node0x5e6814ef63a0&#45;&#45;node0x5e6814ef6350</title>
<path fill="none" stroke="black" d="M1926.05,-147.83C1945.3,-136.92 1969.71,-123.08 1988.96,-112.16"/>
</g>
<!-- node0x5e6814ef6290 -->
<g id="node48" class="node">
<title>node0x5e6814ef6290</title>
<polygon fill="none" stroke="black" points="2074,-38 1968,-38 1968,0 2074,0 2074,-38"/>
<text text-anchor="middle" x="2021" y="-22.8" font-family="Times,serif" font-size="14.00">IDENTIFIER</text>
<text text-anchor="middle" x="2021" y="-7.8" font-family="Times,serif" font-size="14.00">y</text>
</g>
<!-- node0x5e6814ef6350&#45;&#45;node0x5e6814ef6290 -->
<g id="edge47" class="edge">
<title>node0x5e6814ef6350&#45;&#45;node0x5e6814ef6290</title>
<path fill="none" stroke="black" d="M2021,-73.83C2021,-63 2021,-49.29 2021,-38.41"/>
</g>
<!-- node0x5e6814ef6300 -->
<g id="node49" class="node">
<title>node0x5e6814ef6300</title>
<polygon fill="none" stroke="black" points="2248,-38 2092,-38 2092,0 2248,0 2248,-38"/>
<text text-anchor="middle" x="2170" y="-22.8" font-family="Times,serif" font-size="14.00">NUMBER_LITERAL</text>
<text text-anchor="middle" x="2170" y="-7.8" font-family="Times,serif" font-size="14.00">2</text>
</g>
<!-- node0x5e6814ef6350&#45;&#45;node0x5e6814ef6300 -->
<g id="edge48" class="edge">
<title>node0x5e6814ef6350&#45;&#45;node0x5e6814ef6300</title>
<path fill="none" stroke="black" d="M2058.6,-73.83C2081.27,-62.88 2110.05,-48.97 2132.67,-38.04"/>
</g>
</g>
</svg>
