<?xml version="1.0" encoding="UTF-8" standalone="no"?>
<!DOCTYPE svg PUBLIC "-//W3C//DTD SVG 1.1//EN"
 "http://www.w3.org/Graphics/SVG/1.1/DTD/svg11.dtd">
<!-- Generated by graphviz version 2.43.0 (0)
 -->
<!-- Pages: 1 -->
<svg width="1175pt" height="772pt"
 viewBox="0.00 0.00 1175.00 772.00" xmlns="http://www.w3.org/2000/svg" xmlns:xlink="http://www.w3.org/1999/xlink">
<g id="graph0" class="graph" transform="scale(1 1) rotate(0) translate(4 768)">
<polygon fill="white" stroke="transparent" points="-4,4 -4,-768 1171,-768 1171,4 -4,4"/>
<!-- node0x5ad9e9353990 -->
<g id="node1" class="node">
<title>node0x5ad9e9353990</title>
<polygon fill="none" stroke="black" points="768,-764 714,-764 714,-728 768,-728 768,-764"/>
<text text-anchor="middle" x="741" y="-742.3" font-family="Times,serif" font-size="14.00">LIST</text>
</g>
<!-- node0x5ad9e9353940 -->
<g id="node2" class="node">
<title>node0x5ad9e9353940</title>
<polygon fill="none" stroke="black" points="695,-692 597,-692 597,-656 695,-656 695,-692"/>
<text text-anchor="middle" x="646" y="-670.3" font-family="Times,serif" font-size="14.00">FUNCTION</text>
</g>
<!-- node0x5ad9e9353990&#45;&#45;node0x5ad9e9353940 -->
<g id="edge1" class="edge">
<title>node0x5ad9e9353990&#45;&#45;node0x5ad9e9353940</title>
<path fill="none" stroke="black" d="M717.52,-727.7C702.79,-716.85 683.89,-702.92 669.21,-692.1"/>
</g>
<!-- node0x5ad9e9353c50 -->
<g id="node24" class="node">
<title>node0x5ad9e9353c50</title>
<polygon fill="none" stroke="black" points="900,-692 802,-692 802,-656 900,-656 900,-692"/>
<text text-anchor="middle" x="851" y="-670.3" font-family="Times,serif" font-size="14.00">FUNCTION</text>
</g>
<!-- node0x5ad9e9353990&#45;&#45;node0x5ad9e9353c50 -->
<g id="edge23" class="edge">
<title>node0x5ad9e9353990&#45;&#45;node0x5ad9e9353c50</title>
<path fill="none" stroke="black" d="M767.91,-727.88C784.95,-717.03 806.92,-703.05 823.99,-692.19"/>
</g>
<!-- node0x5ad9e9353330 -->
<g id="node3" class="node">
<title>node0x5ad9e9353330</title>
<polygon fill="none" stroke="black" points="564,-620 458,-620 458,-582 564,-582 564,-620"/>
<text text-anchor="middle" x="511" y="-604.8" font-family="Times,serif" font-size="14.00">IDENTIFIER</text>
<text text-anchor="middle" x="511" y="-589.8" font-family="Times,serif" font-size="14.00">main</text>
</g>
<!-- node0x5ad9e9353940&#45;&#45;node0x5ad9e9353330 -->
<g id="edge2" class="edge">
<title>node0x5ad9e9353940&#45;&#45;node0x5ad9e9353330</title>
<path fill="none" stroke="black" d="M613.66,-655.99C593.07,-645.16 566.42,-631.15 545.43,-620.11"/>
</g>
<!-- node0x5ad9e93533a0 -->
<g id="node4" class="node">
<title>node0x5ad9e93533a0</title>
<polygon fill="none" stroke="black" points="636,-619 582,-619 582,-583 636,-583 636,-619"/>
<text text-anchor="middle" x="609" y="-597.3" font-family="Times,serif" font-size="14.00">LIST</text>
</g>
<!-- node0x5ad9e9353940&#45;&#45;node0x5ad9e93533a0 -->
<g id="edge3" class="edge">
<title>node0x5ad9e9353940&#45;&#45;node0x5ad9e93533a0</title>
<path fill="none" stroke="black" d="M637.04,-655.81C631.23,-644.65 623.68,-630.16 617.87,-619.03"/>
</g>
<!-- node0x5ad9e934e3e0 -->
<g id="node5" class="node">
<title>node0x5ad9e934e3e0</title>
<polygon fill="none" stroke="black" points="722,-619 654,-619 654,-583 722,-583 722,-619"/>
<text text-anchor="middle" x="688" y="-597.3" font-family="Times,serif" font-size="14.00">BLOCK</text>
</g>
<!-- node0x5ad9e9353940&#45;&#45;node0x5ad9e934e3e0 -->
<g id="edge4" class="edge">
<title>node0x5ad9e9353940&#45;&#45;node0x5ad9e934e3e0</title>
<path fill="none" stroke="black" d="M656.17,-655.81C662.77,-644.65 671.34,-630.16 677.93,-619.03"/>
</g>
<!-- node0x5ad9e934e390 -->
<g id="node6" class="node">
<title>node0x5ad9e934e390</title>
<polygon fill="none" stroke="black" points="715,-546 661,-546 661,-510 715,-510 715,-546"/>
<text text-anchor="middle" x="688" y="-524.3" font-family="Times,serif" font-size="14.00">LIST</text>
</g>
<!-- node0x5ad9e934e3e0&#45;&#45;node0x5ad9e934e390 -->
<g id="edge5" class="edge">
<title>node0x5ad9e934e3e0&#45;&#45;node0x5ad9e934e390</title>
<path fill="none" stroke="black" d="M688,-582.81C688,-571.65 688,-557.16 688,-546.03"/>
</g>
<!-- node0x5ad9e9353910 -->
<g id="node7" class="node">
<title>node0x5ad9e9353910</title>
<polygon fill="none" stroke="black" points="604,-474 536,-474 536,-438 604,-438 604,-474"/>
<text text-anchor="middle" x="570" y="-452.3" font-family="Times,serif" font-size="14.00">BLOCK</text>
</g>
<!-- node0x5ad9e934e390&#45;&#45;node0x5ad9e9353910 -->
<g id="edge6" class="edge">
<title>node0x5ad9e934e390&#45;&#45;node0x5ad9e9353910</title>
<path fill="none" stroke="black" d="M660.93,-510.94C642.42,-499.96 617.92,-485.42 599.01,-474.21"/>
</g>
<!-- node0x5ad9e934e340 -->
<g id="node22" class="node">
<title>node0x5ad9e934e340</title>
<polygon fill="none" stroke="black" points="802,-474 622,-474 622,-438 802,-438 802,-474"/>
<text text-anchor="middle" x="712" y="-452.3" font-family="Times,serif" font-size="14.00">RETURN_STATEMENT</text>
</g>
<!-- node0x5ad9e934e390&#45;&#45;node0x5ad9e934e340 -->
<g id="edge21" class="edge">
<title>node0x5ad9e934e390&#45;&#45;node0x5ad9e934e340</title>
<path fill="none" stroke="black" d="M693.93,-509.7C697.65,-498.85 702.43,-484.92 706.14,-474.1"/>
</g>
<!-- node0x5ad9e93535d0 -->
<g id="node8" class="node">
<title>node0x5ad9e93535d0</title>
<polygon fill="none" stroke="black" points="597,-401 543,-401 543,-365 597,-365 597,-401"/>
<text text-anchor="middle" x="570" y="-379.3" font-family="Times,serif" font-size="14.00">LIST</text>
</g>
<!-- node0x5ad9e9353910&#45;&#45;node0x5ad9e93535d0 -->
<g id="edge7" class="edge">
<title>node0x5ad9e9353910&#45;&#45;node0x5ad9e93535d0</title>
<path fill="none" stroke="black" d="M570,-437.81C570,-426.65 570,-412.16 570,-401.03"/>
</g>
<!-- node0x5ad9e93535a0 -->
<g id="node9" class="node">
<title>node0x5ad9e93535a0</title>
<polygon fill="none" stroke="black" points="434,-328 272,-328 272,-292 434,-292 434,-328"/>
<text text-anchor="middle" x="353" y="-306.3" font-family="Times,serif" font-size="14.00">PRINT_STATEMENT</text>
</g>
<!-- node0x5ad9e93535d0&#45;&#45;node0x5ad9e93535a0 -->
<g id="edge8" class="edge">
<title>node0x5ad9e93535d0&#45;&#45;node0x5ad9e93535a0</title>
<path fill="none" stroke="black" d="M542.96,-373.15C508.64,-361.92 448.72,-342.32 405.34,-328.12"/>
</g>
<!-- node0x5ad9e93536e0 -->
<g id="node14" class="node">
<title>node0x5ad9e93536e0</title>
<polygon fill="none" stroke="black" points="651,-328 489,-328 489,-292 651,-292 651,-328"/>
<text text-anchor="middle" x="570" y="-306.3" font-family="Times,serif" font-size="14.00">PRINT_STATEMENT</text>
</g>
<!-- node0x5ad9e93535d0&#45;&#45;node0x5ad9e93536e0 -->
<g id="edge13" class="edge">
<title>node0x5ad9e93535d0&#45;&#45;node0x5ad9e93536e0</title>
<path fill="none" stroke="black" d="M570,-364.81C570,-353.65 570,-339.16 570,-328.03"/>
</g>
<!-- node0x5ad9e9353890 -->
<g id="node17" class="node">
<title>node0x5ad9e9353890</title>
<polygon fill="none" stroke="black" points="747,-328 679,-328 679,-292 747,-292 747,-328"/>
<text text-anchor="middle" x="713" y="-306.3" font-family="Times,serif" font-size="14.00">BLOCK</text>
</g>
<!-- node0x5ad9e93535d0&#45;&#45;node0x5ad9e9353890 -->
<g id="edge16" class="edge">
<title>node0x5ad9e93535d0&#45;&#45;node0x5ad9e9353890</title>
<path fill="none" stroke="black" d="M597.23,-368.48C620.41,-356.97 653.82,-340.38 678.79,-327.98"/>
</g>
<!-- node0x5ad9e9353460 -->
<g id="node10" class="node">
<title>node0x5ad9e9353460</title>
<polygon fill="none" stroke="black" points="342,-256 288,-256 288,-220 342,-220 342,-256"/>
<text text-anchor="middle" x="315" y="-234.3" font-family="Times,serif" font-size="14.00">LIST</text>
</g>
<!-- node0x5ad9e93535a0&#45;&#45;node0x5ad9e9353460 -->
<g id="edge9" class="edge">
<title>node0x5ad9e93535a0&#45;&#45;node0x5ad9e9353460</title>
<path fill="none" stroke="black" d="M343.61,-291.7C337.72,-280.85 330.15,-266.92 324.29,-256.1"/>
</g>
<!-- node0x5ad9e93533f0 -->
<g id="node11" class="node">
<title>node0x5ad9e93533f0</title>
<polygon fill="none" stroke="black" points="144,-184 0,-184 0,-146 144,-146 144,-184"/>
<text text-anchor="middle" x="72" y="-168.8" font-family="Times,serif" font-size="14.00">STRING_LITERAL</text>
<text text-anchor="middle" x="72" y="-153.8" font-family="Times,serif" font-size="14.00">&quot;Hello &quot;</text>
</g>
<!-- node0x5ad9e9353460&#45;&#45;node0x5ad9e93533f0 -->
<g id="edge10" class="edge">
<title>node0x5ad9e9353460&#45;&#45;node0x5ad9e93533f0</title>
<path fill="none" stroke="black" d="M287.6,-228.99C250.48,-218.15 183.19,-198.49 133.62,-184.01"/>
</g>
<!-- node0x5ad9e93534b0 -->
<g id="node12" class="node">
<title>node0x5ad9e93534b0</title>
<polygon fill="none" stroke="black" points="318,-184 162,-184 162,-146 318,-146 318,-184"/>
<text text-anchor="middle" x="240" y="-168.8" font-family="Times,serif" font-size="14.00">NUMBER_LITERAL</text>
<text text-anchor="middle" x="240" y="-153.8" font-family="Times,serif" font-size="14.00">2</text>
</g>
<!-- node0x5ad9e9353460&#45;&#45;node0x5ad9e93534b0 -->
<g id="edge11" class="edge">
<title>node0x5ad9e9353460&#45;&#45;node0x5ad9e93534b0</title>
<path fill="none" stroke="black" d="M296.84,-219.81C285.4,-208.98 270.64,-195.01 259.03,-184.02"/>
</g>
<!-- node0x5ad9e9353500 -->
<g id="node13" class="node">
<title>node0x5ad9e9353500</title>
<polygon fill="none" stroke="black" points="480,-184 336,-184 336,-146 480,-146 480,-184"/>
<text text-anchor="middle" x="408" y="-168.8" font-family="Times,serif" font-size="14.00">STRING_LITERAL</text>
<text text-anchor="middle" x="408" y="-153.8" font-family="Times,serif" font-size="14.00">&quot; World&quot;</text>
</g>
<!-- node0x5ad9e9353460&#45;&#45;node0x5ad9e9353500 -->
<g id="edge12" class="edge">
<title>node0x5ad9e9353460&#45;&#45;node0x5ad9e9353500</title>
<path fill="none" stroke="black" d="M337.51,-219.81C351.7,-208.98 370,-195.01 384.4,-184.02"/>
</g>
<!-- node0x5ad9e9353690 -->
<g id="node15" class="node">
<title>node0x5ad9e9353690</title>
<polygon fill="none" stroke="black" points="597,-256 543,-256 543,-220 597,-220 597,-256"/>
<text text-anchor="middle" x="570" y="-234.3" font-family="Times,serif" font-size="14.00">LIST</text>
</g>
<!-- node0x5ad9e93536e0&#45;&#45;node0x5ad9e9353690 -->
<g id="edge14" class="edge">
<title>node0x5ad9e93536e0&#45;&#45;node0x5ad9e9353690</title>
<path fill="none" stroke="black" d="M570,-291.7C570,-280.85 570,-266.92 570,-256.1"/>
</g>
<!-- node0x5ad9e9353620 -->
<g id="node16" class="node">
<title>node0x5ad9e9353620</title>
<polygon fill="none" stroke="black" points="642,-184 498,-184 498,-146 642,-146 642,-184"/>
<text text-anchor="middle" x="570" y="-168.8" font-family="Times,serif" font-size="14.00">STRING_LITERAL</text>
<text text-anchor="middle" x="570" y="-153.8" font-family="Times,serif" font-size="14.00">&quot;Another one&quot;</text>
</g>
<!-- node0x5ad9e9353690&#45;&#45;node0x5ad9e9353620 -->
<g id="edge15" class="edge">
<title>node0x5ad9e9353690&#45;&#45;node0x5ad9e9353620</title>
<path fill="none" stroke="black" d="M570,-219.81C570,-208.98 570,-195.01 570,-184.02"/>
</g>
<!-- node0x5ad9e9353840 -->
<g id="node18" class="node">
<title>node0x5ad9e9353840</title>
<polygon fill="none" stroke="black" points="759,-256 705,-256 705,-220 759,-220 759,-256"/>
<text text-anchor="middle" x="732" y="-234.3" font-family="Times,serif" font-size="14.00">LIST</text>
</g>
<!-- node0x5ad9e9353890&#45;&#45;node0x5ad9e9353840 -->
<g id="edge17" class="edge">
<title>node0x5ad9e9353890&#45;&#45;node0x5ad9e9353840</title>
<path fill="none" stroke="black" d="M717.7,-291.7C720.64,-280.85 724.42,-266.92 727.36,-256.1"/>
</g>
<!-- node0x5ad9e93537f0 -->
<g id="node19" class="node">
<title>node0x5ad9e93537f0</title>
<polygon fill="none" stroke="black" points="822,-183 660,-183 660,-147 822,-147 822,-183"/>
<text text-anchor="middle" x="741" y="-161.3" font-family="Times,serif" font-size="14.00">PRINT_STATEMENT</text>
</g>
<!-- node0x5ad9e9353840&#45;&#45;node0x5ad9e93537f0 -->
<g id="edge18" class="edge">
<title>node0x5ad9e9353840&#45;&#45;node0x5ad9e93537f0</title>
<path fill="none" stroke="black" d="M734.18,-219.81C735.59,-208.65 737.43,-194.16 738.84,-183.03"/>
</g>
<!-- node0x5ad9e93537a0 -->
<g id="node20" class="node">
<title>node0x5ad9e93537a0</title>
<polygon fill="none" stroke="black" points="768,-110 714,-110 714,-74 768,-74 768,-110"/>
<text text-anchor="middle" x="741" y="-88.3" font-family="Times,serif" font-size="14.00">LIST</text>
</g>
<!-- node0x5ad9e93537f0&#45;&#45;node0x5ad9e93537a0 -->
<g id="edge19" class="edge">
<title>node0x5ad9e93537f0&#45;&#45;node0x5ad9e93537a0</title>
<path fill="none" stroke="black" d="M741,-146.81C741,-135.65 741,-121.16 741,-110.03"/>
</g>
<!-- node0x5ad9e9353730 -->
<g id="node21" class="node">
<title>node0x5ad9e9353730</title>
<polygon fill="none" stroke="black" points="813,-38 669,-38 669,0 813,0 813,-38"/>
<text text-anchor="middle" x="741" y="-22.8" font-family="Times,serif" font-size="14.00">STRING_LITERAL</text>
<text text-anchor="middle" x="741" y="-7.8" font-family="Times,serif" font-size="14.00">&quot;Yet another&quot;</text>
</g>
<!-- node0x5ad9e93537a0&#45;&#45;node0x5ad9e9353730 -->
<g id="edge20" class="edge">
<title>node0x5ad9e93537a0&#45;&#45;node0x5ad9e9353730</title>
<path fill="none" stroke="black" d="M741,-73.81C741,-62.98 741,-49.01 741,-38.02"/>
</g>
<!-- node0x5ad9e934e310 -->
<g id="node23" class="node">
<title>node0x5ad9e934e310</title>
<polygon fill="none" stroke="black" points="790,-402 634,-402 634,-364 790,-364 790,-402"/>
<text text-anchor="middle" x="712" y="-386.8" font-family="Times,serif" font-size="14.00">NUMBER_LITERAL</text>
<text text-anchor="middle" x="712" y="-371.8" font-family="Times,serif" font-size="14.00">0</text>
</g>
<!-- node0x5ad9e934e340&#45;&#45;node0x5ad9e934e310 -->
<g id="edge22" class="edge">
<title>node0x5ad9e934e340&#45;&#45;node0x5ad9e934e310</title>
<path fill="none" stroke="black" d="M712,-437.81C712,-426.98 712,-413.01 712,-402.02"/>
</g>
<!-- node0x5ad9e93539e0 -->
<g id="node25" class="node">
<title>node0x5ad9e93539e0</title>
<polygon fill="none" stroke="black" points="858,-620 740,-620 740,-582 858,-582 858,-620"/>
<text text-anchor="middle" x="799" y="-604.8" font-family="Times,serif" font-size="14.00">IDENTIFIER</text>
<text text-anchor="middle" x="799" y="-589.8" font-family="Times,serif" font-size="14.00">printNewlines</text>
</g>
<!-- node0x5ad9e9353c50&#45;&#45;node0x5ad9e93539e0 -->
<g id="edge24" class="edge">
<title>node0x5ad9e9353c50&#45;&#45;node0x5ad9e93539e0</title>
<path fill="none" stroke="black" d="M838.41,-655.81C830.48,-644.98 820.25,-631.01 812.2,-620.02"/>
</g>
<!-- node0x5ad9e9353a50 -->
<g id="node26" class="node">
<title>node0x5ad9e9353a50</title>
<polygon fill="none" stroke="black" points="930,-619 876,-619 876,-583 930,-583 930,-619"/>
<text text-anchor="middle" x="903" y="-597.3" font-family="Times,serif" font-size="14.00">LIST</text>
</g>
<!-- node0x5ad9e9353c50&#45;&#45;node0x5ad9e9353a50 -->
<g id="edge25" class="edge">
<title>node0x5ad9e9353c50&#45;&#45;node0x5ad9e9353a50</title>
<path fill="none" stroke="black" d="M863.59,-655.81C871.76,-644.65 882.38,-630.16 890.53,-619.03"/>
</g>
<!-- node0x5ad9e934e520 -->
<g id="node27" class="node">
<title>node0x5ad9e934e520</title>
<polygon fill="none" stroke="black" points="1016,-619 948,-619 948,-583 1016,-583 1016,-619"/>
<text text-anchor="middle" x="982" y="-597.3" font-family="Times,serif" font-size="14.00">BLOCK</text>
</g>
<!-- node0x5ad9e9353c50&#45;&#45;node0x5ad9e934e520 -->
<g id="edge26" class="edge">
<title>node0x5ad9e9353c50&#45;&#45;node0x5ad9e934e520</title>
<path fill="none" stroke="black" d="M882.38,-655.99C902.97,-644.83 929.8,-630.29 950.42,-619.11"/>
</g>
<!-- node0x5ad9e934e4d0 -->
<g id="node28" class="node">
<title>node0x5ad9e934e4d0</title>
<polygon fill="none" stroke="black" points="1009,-546 955,-546 955,-510 1009,-510 1009,-546"/>
<text text-anchor="middle" x="982" y="-524.3" font-family="Times,serif" font-size="14.00">LIST</text>
</g>
<!-- node0x5ad9e934e520&#45;&#45;node0x5ad9e934e4d0 -->
<g id="edge27" class="edge">
<title>node0x5ad9e934e520&#45;&#45;node0x5ad9e934e4d0</title>
<path fill="none" stroke="black" d="M982,-582.81C982,-571.65 982,-557.16 982,-546.03"/>
</g>
<!-- node0x5ad9e9353c00 -->
<g id="node29" class="node">
<title>node0x5ad9e9353c00</title>
<polygon fill="none" stroke="black" points="969,-474 901,-474 901,-438 969,-438 969,-474"/>
<text text-anchor="middle" x="935" y="-452.3" font-family="Times,serif" font-size="14.00">BLOCK</text>
</g>
<!-- node0x5ad9e934e4d0&#45;&#45;node0x5ad9e9353c00 -->
<g id="edge28" class="edge">
<title>node0x5ad9e934e4d0&#45;&#45;node0x5ad9e9353c00</title>
<path fill="none" stroke="black" d="M970.38,-509.7C963.1,-498.85 953.74,-484.92 946.48,-474.1"/>
</g>
<!-- node0x5ad9e934e480 -->
<g id="node34" class="node">
<title>node0x5ad9e934e480</title>
<polygon fill="none" stroke="black" points="1167,-474 987,-474 987,-438 1167,-438 1167,-474"/>
<text text-anchor="middle" x="1077" y="-452.3" font-family="Times,serif" font-size="14.00">RETURN_STATEMENT</text>
</g>
<!-- node0x5ad9e934e4d0&#45;&#45;node0x5ad9e934e480 -->
<g id="edge33" class="edge">
<title>node0x5ad9e934e4d0&#45;&#45;node0x5ad9e934e480</title>
<path fill="none" stroke="black" d="M1005.48,-509.7C1020.21,-498.85 1039.11,-484.92 1053.79,-474.1"/>
</g>
<!-- node0x5ad9e9353bb0 -->
<g id="node30" class="node">
<title>node0x5ad9e9353bb0</title>
<polygon fill="none" stroke="black" points="962,-401 908,-401 908,-365 962,-365 962,-401"/>
<text text-anchor="middle" x="935" y="-379.3" font-family="Times,serif" font-size="14.00">LIST</text>
</g>
<!-- node0x5ad9e9353c00&#45;&#45;node0x5ad9e9353bb0 -->
<g id="edge29" class="edge">
<title>node0x5ad9e9353c00&#45;&#45;node0x5ad9e9353bb0</title>
<path fill="none" stroke="black" d="M935,-437.81C935,-426.65 935,-412.16 935,-401.03"/>
</g>
<!-- node0x5ad9e9353b60 -->
<g id="node31" class="node">
<title>node0x5ad9e9353b60</title>
<polygon fill="none" stroke="black" points="1016,-328 854,-328 854,-292 1016,-292 1016,-328"/>
<text text-anchor="middle" x="935" y="-306.3" font-family="Times,serif" font-size="14.00">PRINT_STATEMENT</text>
</g>
<!-- node0x5ad9e9353bb0&#45;&#45;node0x5ad9e9353b60 -->
<g id="edge30" class="edge">
<title>node0x5ad9e9353bb0&#45;&#45;node0x5ad9e9353b60</title>
<path fill="none" stroke="black" d="M935,-364.81C935,-353.65 935,-339.16 935,-328.03"/>
</g>
<!-- node0x5ad9e9353b10 -->
<g id="node32" class="node">
<title>node0x5ad9e9353b10</title>
<polygon fill="none" stroke="black" points="962,-256 908,-256 908,-220 962,-220 962,-256"/>
<text text-anchor="middle" x="935" y="-234.3" font-family="Times,serif" font-size="14.00">LIST</text>
</g>
<!-- node0x5ad9e9353b60&#45;&#45;node0x5ad9e9353b10 -->
<g id="edge31" class="edge">
<title>node0x5ad9e9353b60&#45;&#45;node0x5ad9e9353b10</title>
<path fill="none" stroke="black" d="M935,-291.7C935,-280.85 935,-266.92 935,-256.1"/>
</g>
<!-- node0x5ad9e9353aa0 -->
<g id="node33" class="node">
<title>node0x5ad9e9353aa0</title>
<polygon fill="none" stroke="black" points="1007,-184 863,-184 863,-146 1007,-146 1007,-184"/>
<text text-anchor="middle" x="935" y="-168.8" font-family="Times,serif" font-size="14.00">STRING_LITERAL</text>
<text text-anchor="middle" x="935" y="-153.8" font-family="Times,serif" font-size="14.00">&quot;\n\n\n&quot;</text>
</g>
<!-- node0x5ad9e9353b10&#45;&#45;node0x5ad9e9353aa0 -->
<g id="edge32" class="edge">
<title>node0x5ad9e9353b10&#45;&#45;node0x5ad9e9353aa0</title>
<path fill="none" stroke="black" d="M935,-219.81C935,-208.98 935,-195.01 935,-184.02"/>
</g>
<!-- node0x5ad9e934e430 -->
<g id="node35" class="node">
<title>node0x5ad9e934e430</title>
<polygon fill="none" stroke="black" points="1155,-402 999,-402 999,-364 1155,-364 1155,-402"/>
<text text-anchor="middle" x="1077" y="-386.8" font-family="Times,serif" font-size="14.00">NUMBER_LITERAL</text>
<text text-anchor="middle" x="1077" y="-371.8" font-family="Times,serif" font-size="14.00">0</text>
</g>
<!-- node0x5ad9e934e480&#45;&#45;node0x5ad9e934e430 -->
<g id="edge34" class="edge">
<title>node0x5ad9e934e480&#45;&#45;node0x5ad9e934e430</title>
<path fill="none" stroke="black" d="M1077,-437.81C1077,-426.98 1077,-413.01 1077,-402.02"/>
</g>
</g>
</svg>
