<?xml version="1.0" encoding="UTF-8" standalone="no"?>
<!DOCTYPE svg PUBLIC "-//W3C//DTD SVG 1.1//EN"
 "http://www.w3.org/Graphics/SVG/1.1/DTD/svg11.dtd">
<!-- Generated by graphviz version 2.43.0 (0)
 -->
<!-- Pages: 1 -->
<svg width="1396pt" height="412pt"
 viewBox="0.00 0.00 1396.00 412.00" xmlns="http://www.w3.org/2000/svg" xmlns:xlink="http://www.w3.org/1999/xlink">
<g id="graph0" class="graph" transform="scale(1 1) rotate(0) translate(4 408)">
<polygon fill="white" stroke="transparent" points="-4,4 -4,-408 1392,-408 1392,4 -4,4"/>
<!-- node0x6504769be4b0 -->
<g id="node1" class="node">
<title>node0x6504769be4b0</title>
<polygon fill="none" stroke="black" points="732,-404 678,-404 678,-368 732,-368 732,-404"/>
<text text-anchor="middle" x="705" y="-382.3" font-family="Times,serif" font-size="14.00">LIST</text>
</g>
<!-- node0x6504769be460 -->
<g id="node2" class="node">
<title>node0x6504769be460</title>
<polygon fill="none" stroke="black" points="253,-332 61,-332 61,-296 253,-296 253,-332"/>
<text text-anchor="middle" x="157" y="-310.3" font-family="Times,serif" font-size="14.00">GLOBAL_DECLARATION</text>
</g>
<!-- node0x6504769be4b0&#45;&#45;node0x6504769be460 -->
<g id="edge1" class="edge">
<title>node0x6504769be4b0&#45;&#45;node0x6504769be460</title>
<path fill="none" stroke="black" d="M677.82,-381.53C601.32,-371.76 381.35,-343.66 253.07,-327.27"/>
</g>
<!-- node0x6504769be8a0 -->
<g id="node6" class="node">
<title>node0x6504769be8a0</title>
<polygon fill="none" stroke="black" points="453,-332 355,-332 355,-296 453,-296 453,-332"/>
<text text-anchor="middle" x="404" y="-310.3" font-family="Times,serif" font-size="14.00">FUNCTION</text>
</g>
<!-- node0x6504769be4b0&#45;&#45;node0x6504769be8a0 -->
<g id="edge5" class="edge">
<title>node0x6504769be4b0&#45;&#45;node0x6504769be8a0</title>
<path fill="none" stroke="black" d="M677.76,-378.66C626.96,-366.85 517.15,-341.31 453.12,-326.42"/>
</g>
<!-- node0x6504769bebd0 -->
<g id="node17" class="node">
<title>node0x6504769bebd0</title>
<polygon fill="none" stroke="black" points="754,-332 656,-332 656,-296 754,-296 754,-332"/>
<text text-anchor="middle" x="705" y="-310.3" font-family="Times,serif" font-size="14.00">FUNCTION</text>
</g>
<!-- node0x6504769be4b0&#45;&#45;node0x6504769bebd0 -->
<g id="edge16" class="edge">
<title>node0x6504769be4b0&#45;&#45;node0x6504769bebd0</title>
<path fill="none" stroke="black" d="M705,-367.7C705,-356.85 705,-342.92 705,-332.1"/>
</g>
<!-- node0x6504769beea0 -->
<g id="node26" class="node">
<title>node0x6504769beea0</title>
<polygon fill="none" stroke="black" points="1017,-332 825,-332 825,-296 1017,-296 1017,-332"/>
<text text-anchor="middle" x="921" y="-310.3" font-family="Times,serif" font-size="14.00">GLOBAL_DECLARATION</text>
</g>
<!-- node0x6504769be4b0&#45;&#45;node0x6504769beea0 -->
<g id="edge25" class="edge">
<title>node0x6504769be4b0&#45;&#45;node0x6504769beea0</title>
<path fill="none" stroke="black" d="M732.36,-376.13C766.41,-365.1 825.32,-346.01 868.27,-332.09"/>
</g>
<!-- node0x6504769befb0 -->
<g id="node34" class="node">
<title>node0x6504769befb0</title>
<polygon fill="none" stroke="black" points="1306,-332 1114,-332 1114,-296 1306,-296 1306,-332"/>
<text text-anchor="middle" x="1210" y="-310.3" font-family="Times,serif" font-size="14.00">GLOBAL_DECLARATION</text>
</g>
<!-- node0x6504769be4b0&#45;&#45;node0x6504769befb0 -->
<g id="edge33" class="edge">
<title>node0x6504769be4b0&#45;&#45;node0x6504769befb0</title>
<path fill="none" stroke="black" d="M732.15,-381.24C802.98,-371.42 996.06,-344.65 1113.98,-328.31"/>
</g>
<!-- node0x6504769be3a0 -->
<g id="node3" class="node">
<title>node0x6504769be3a0</title>
<polygon fill="none" stroke="black" points="142,-259 88,-259 88,-223 142,-223 142,-259"/>
<text text-anchor="middle" x="115" y="-237.3" font-family="Times,serif" font-size="14.00">LIST</text>
</g>
<!-- node0x6504769be460&#45;&#45;node0x6504769be3a0 -->
<g id="edge2" class="edge">
<title>node0x6504769be460&#45;&#45;node0x6504769be3a0</title>
<path fill="none" stroke="black" d="M146.83,-295.81C140.23,-284.65 131.66,-270.16 125.07,-259.03"/>
</g>
<!-- node0x6504769be330 -->
<g id="node4" class="node">
<title>node0x6504769be330</title>
<polygon fill="none" stroke="black" points="106,-186 0,-186 0,-148 106,-148 106,-186"/>
<text text-anchor="middle" x="53" y="-170.8" font-family="Times,serif" font-size="14.00">IDENTIFIER</text>
<text text-anchor="middle" x="53" y="-155.8" font-family="Times,serif" font-size="14.00">a</text>
</g>
<!-- node0x6504769be3a0&#45;&#45;node0x6504769be330 -->
<g id="edge3" class="edge">
<title>node0x6504769be3a0&#45;&#45;node0x6504769be330</title>
<path fill="none" stroke="black" d="M100.31,-222.94C90.78,-211.88 78.39,-197.48 68.67,-186.2"/>
</g>
<!-- node0x6504769be3f0 -->
<g id="node5" class="node">
<title>node0x6504769be3f0</title>
<polygon fill="none" stroke="black" points="230,-186 124,-186 124,-148 230,-148 230,-186"/>
<text text-anchor="middle" x="177" y="-170.8" font-family="Times,serif" font-size="14.00">IDENTIFIER</text>
<text text-anchor="middle" x="177" y="-155.8" font-family="Times,serif" font-size="14.00">b</text>
</g>
<!-- node0x6504769be3a0&#45;&#45;node0x6504769be3f0 -->
<g id="edge4" class="edge">
<title>node0x6504769be3a0&#45;&#45;node0x6504769be3f0</title>
<path fill="none" stroke="black" d="M129.69,-222.94C139.22,-211.88 151.61,-197.48 161.33,-186.2"/>
</g>
<!-- node0x6504769be500 -->
<g id="node7" class="node">
<title>node0x6504769be500</title>
<polygon fill="none" stroke="black" points="266,-260 160,-260 160,-222 266,-222 266,-260"/>
<text text-anchor="middle" x="213" y="-244.8" font-family="Times,serif" font-size="14.00">IDENTIFIER</text>
<text text-anchor="middle" x="213" y="-229.8" font-family="Times,serif" font-size="14.00">main</text>
</g>
<!-- node0x6504769be8a0&#45;&#45;node0x6504769be500 -->
<g id="edge6" class="edge">
<title>node0x6504769be8a0&#45;&#45;node0x6504769be500</title>
<path fill="none" stroke="black" d="M358.25,-295.99C329.12,-285.16 291.41,-271.15 261.71,-260.11"/>
</g>
<!-- node0x6504769be570 -->
<g id="node8" class="node">
<title>node0x6504769be570</title>
<polygon fill="none" stroke="black" points="338,-259 284,-259 284,-223 338,-223 338,-259"/>
<text text-anchor="middle" x="311" y="-237.3" font-family="Times,serif" font-size="14.00">LIST</text>
</g>
<!-- node0x6504769be8a0&#45;&#45;node0x6504769be570 -->
<g id="edge7" class="edge">
<title>node0x6504769be8a0&#45;&#45;node0x6504769be570</title>
<path fill="none" stroke="black" d="M381.49,-295.81C366.87,-284.65 347.89,-270.16 333.31,-259.03"/>
</g>
<!-- node0x6504769be850 -->
<g id="node9" class="node">
<title>node0x6504769be850</title>
<polygon fill="none" stroke="black" points="536,-259 356,-259 356,-223 536,-223 536,-259"/>
<text text-anchor="middle" x="446" y="-237.3" font-family="Times,serif" font-size="14.00">RETURN_STATEMENT</text>
</g>
<!-- node0x6504769be8a0&#45;&#45;node0x6504769be850 -->
<g id="edge8" class="edge">
<title>node0x6504769be8a0&#45;&#45;node0x6504769be850</title>
<path fill="none" stroke="black" d="M414.17,-295.81C420.77,-284.65 429.34,-270.16 435.93,-259.03"/>
</g>
<!-- node0x6504769be800 -->
<g id="node10" class="node">
<title>node0x6504769be800</title>
<polygon fill="none" stroke="black" points="477,-186 379,-186 379,-148 477,-148 477,-186"/>
<text text-anchor="middle" x="428" y="-170.8" font-family="Times,serif" font-size="14.00">OPERATOR</text>
<text text-anchor="middle" x="428" y="-155.8" font-family="Times,serif" font-size="14.00">+</text>
</g>
<!-- node0x6504769be850&#45;&#45;node0x6504769be800 -->
<g id="edge9" class="edge">
<title>node0x6504769be850&#45;&#45;node0x6504769be800</title>
<path fill="none" stroke="black" d="M441.73,-222.94C438.97,-211.88 435.37,-197.48 432.55,-186.2"/>
</g>
<!-- node0x6504769be6a0 -->
<g id="node11" class="node">
<title>node0x6504769be6a0</title>
<polygon fill="none" stroke="black" points="338,-112 240,-112 240,-74 338,-74 338,-112"/>
<text text-anchor="middle" x="289" y="-96.8" font-family="Times,serif" font-size="14.00">OPERATOR</text>
<text text-anchor="middle" x="289" y="-81.8" font-family="Times,serif" font-size="14.00">+</text>
</g>
<!-- node0x6504769be800&#45;&#45;node0x6504769be6a0 -->
<g id="edge10" class="edge">
<title>node0x6504769be800&#45;&#45;node0x6504769be6a0</title>
<path fill="none" stroke="black" d="M392.92,-147.83C371.85,-136.92 345.13,-123.08 324.06,-112.16"/>
</g>
<!-- node0x6504769be7b0 -->
<g id="node14" class="node">
<title>node0x6504769be7b0</title>
<polygon fill="none" stroke="black" points="499.5,-111 356.5,-111 356.5,-75 499.5,-75 499.5,-111"/>
<text text-anchor="middle" x="428" y="-89.3" font-family="Times,serif" font-size="14.00">FUNCTION_CALL</text>
</g>
<!-- node0x6504769be800&#45;&#45;node0x6504769be7b0 -->
<g id="edge13" class="edge">
<title>node0x6504769be800&#45;&#45;node0x6504769be7b0</title>
<path fill="none" stroke="black" d="M428,-147.83C428,-136.67 428,-122.44 428,-111.42"/>
</g>
<!-- node0x6504769be5c0 -->
<g id="node12" class="node">
<title>node0x6504769be5c0</title>
<polygon fill="none" stroke="black" points="222,-38 116,-38 116,0 222,0 222,-38"/>
<text text-anchor="middle" x="169" y="-22.8" font-family="Times,serif" font-size="14.00">IDENTIFIER</text>
<text text-anchor="middle" x="169" y="-7.8" font-family="Times,serif" font-size="14.00">a</text>
</g>
<!-- node0x6504769be6a0&#45;&#45;node0x6504769be5c0 -->
<g id="edge11" class="edge">
<title>node0x6504769be6a0&#45;&#45;node0x6504769be5c0</title>
<path fill="none" stroke="black" d="M258.72,-73.83C240.53,-62.92 217.46,-49.08 199.27,-38.16"/>
</g>
<!-- node0x6504769be630 -->
<g id="node13" class="node">
<title>node0x6504769be630</title>
<polygon fill="none" stroke="black" points="346,-38 240,-38 240,0 346,0 346,-38"/>
<text text-anchor="middle" x="293" y="-22.8" font-family="Times,serif" font-size="14.00">IDENTIFIER</text>
<text text-anchor="middle" x="293" y="-7.8" font-family="Times,serif" font-size="14.00">x</text>
</g>
<!-- node0x6504769be6a0&#45;&#45;node0x6504769be630 -->
<g id="edge12" class="edge">
<title>node0x6504769be6a0&#45;&#45;node0x6504769be630</title>
<path fill="none" stroke="black" d="M290.01,-73.83C290.61,-63 291.37,-49.29 291.98,-38.41"/>
</g>
<!-- node0x6504769be6f0 -->
<g id="node15" class="node">
<title>node0x6504769be6f0</title>
<polygon fill="none" stroke="black" points="477,-38 371,-38 371,0 477,0 477,-38"/>
<text text-anchor="middle" x="424" y="-22.8" font-family="Times,serif" font-size="14.00">IDENTIFIER</text>
<text text-anchor="middle" x="424" y="-7.8" font-family="Times,serif" font-size="14.00">func2</text>
</g>
<!-- node0x6504769be7b0&#45;&#45;node0x6504769be6f0 -->
<g id="edge14" class="edge">
<title>node0x6504769be7b0&#45;&#45;node0x6504769be6f0</title>
<path fill="none" stroke="black" d="M427.05,-74.94C426.44,-63.88 425.64,-49.48 425.01,-38.2"/>
</g>
<!-- node0x6504769be760 -->
<g id="node16" class="node">
<title>node0x6504769be760</title>
<polygon fill="none" stroke="black" points="549,-37 495,-37 495,-1 549,-1 549,-37"/>
<text text-anchor="middle" x="522" y="-15.3" font-family="Times,serif" font-size="14.00">LIST</text>
</g>
<!-- node0x6504769be7b0&#45;&#45;node0x6504769be760 -->
<g id="edge15" class="edge">
<title>node0x6504769be7b0&#45;&#45;node0x6504769be760</title>
<path fill="none" stroke="black" d="M450.28,-74.94C465.15,-63.54 484.65,-48.61 499.56,-37.19"/>
</g>
<!-- node0x6504769be8f0 -->
<g id="node18" class="node">
<title>node0x6504769be8f0</title>
<polygon fill="none" stroke="black" points="660,-260 554,-260 554,-222 660,-222 660,-260"/>
<text text-anchor="middle" x="607" y="-244.8" font-family="Times,serif" font-size="14.00">IDENTIFIER</text>
<text text-anchor="middle" x="607" y="-229.8" font-family="Times,serif" font-size="14.00">func2</text>
</g>
<!-- node0x6504769bebd0&#45;&#45;node0x6504769be8f0 -->
<g id="edge17" class="edge">
<title>node0x6504769bebd0&#45;&#45;node0x6504769be8f0</title>
<path fill="none" stroke="black" d="M681.28,-295.81C666.32,-284.98 647.04,-271.01 631.87,-260.02"/>
</g>
<!-- node0x6504769be960 -->
<g id="node19" class="node">
<title>node0x6504769be960</title>
<polygon fill="none" stroke="black" points="732,-259 678,-259 678,-223 732,-223 732,-259"/>
<text text-anchor="middle" x="705" y="-237.3" font-family="Times,serif" font-size="14.00">LIST</text>
</g>
<!-- node0x6504769bebd0&#45;&#45;node0x6504769be960 -->
<g id="edge18" class="edge">
<title>node0x6504769bebd0&#45;&#45;node0x6504769be960</title>
<path fill="none" stroke="black" d="M705,-295.81C705,-284.65 705,-270.16 705,-259.03"/>
</g>
<!-- node0x6504769beb80 -->
<g id="node20" class="node">
<title>node0x6504769beb80</title>
<polygon fill="none" stroke="black" points="930,-259 750,-259 750,-223 930,-223 930,-259"/>
<text text-anchor="middle" x="840" y="-237.3" font-family="Times,serif" font-size="14.00">RETURN_STATEMENT</text>
</g>
<!-- node0x6504769bebd0&#45;&#45;node0x6504769beb80 -->
<g id="edge19" class="edge">
<title>node0x6504769bebd0&#45;&#45;node0x6504769beb80</title>
<path fill="none" stroke="black" d="M737.34,-295.99C758.55,-284.83 786.2,-270.29 807.46,-259.11"/>
</g>
<!-- node0x6504769beb30 -->
<g id="node21" class="node">
<title>node0x6504769beb30</title>
<polygon fill="none" stroke="black" points="792,-185 642,-185 642,-149 792,-149 792,-185"/>
<text text-anchor="middle" x="717" y="-163.3" font-family="Times,serif" font-size="14.00">ARRAY_INDEXING</text>
</g>
<!-- node0x6504769beb80&#45;&#45;node0x6504769beb30 -->
<g id="edge20" class="edge">
<title>node0x6504769beb80&#45;&#45;node0x6504769beb30</title>
<path fill="none" stroke="black" d="M810.85,-222.94C791.39,-211.54 765.88,-196.61 746.37,-185.19"/>
</g>
<!-- node0x6504769be9b0 -->
<g id="node22" class="node">
<title>node0x6504769be9b0</title>
<polygon fill="none" stroke="black" points="624,-112 518,-112 518,-74 624,-74 624,-112"/>
<text text-anchor="middle" x="571" y="-96.8" font-family="Times,serif" font-size="14.00">IDENTIFIER</text>
<text text-anchor="middle" x="571" y="-81.8" font-family="Times,serif" font-size="14.00">array</text>
</g>
<!-- node0x6504769beb30&#45;&#45;node0x6504769be9b0 -->
<g id="edge21" class="edge">
<title>node0x6504769beb30&#45;&#45;node0x6504769be9b0</title>
<path fill="none" stroke="black" d="M682.4,-148.94C659.89,-137.83 630.56,-123.37 607.65,-112.07"/>
</g>
<!-- node0x6504769beae0 -->
<g id="node23" class="node">
<title>node0x6504769beae0</title>
<polygon fill="none" stroke="black" points="792,-111 642,-111 642,-75 792,-75 792,-111"/>
<text text-anchor="middle" x="717" y="-89.3" font-family="Times,serif" font-size="14.00">ARRAY_INDEXING</text>
</g>
<!-- node0x6504769beb30&#45;&#45;node0x6504769beae0 -->
<g id="edge22" class="edge">
<title>node0x6504769beb30&#45;&#45;node0x6504769beae0</title>
<path fill="none" stroke="black" d="M717,-148.94C717,-137.63 717,-122.83 717,-111.44"/>
</g>
<!-- node0x6504769bea20 -->
<g id="node24" class="node">
<title>node0x6504769bea20</title>
<polygon fill="none" stroke="black" points="722,-38 616,-38 616,0 722,0 722,-38"/>
<text text-anchor="middle" x="669" y="-22.8" font-family="Times,serif" font-size="14.00">IDENTIFIER</text>
<text text-anchor="middle" x="669" y="-7.8" font-family="Times,serif" font-size="14.00">other</text>
</g>
<!-- node0x6504769beae0&#45;&#45;node0x6504769bea20 -->
<g id="edge23" class="edge">
<title>node0x6504769beae0&#45;&#45;node0x6504769bea20</title>
<path fill="none" stroke="black" d="M705.62,-74.94C698.25,-63.88 688.65,-49.48 681.13,-38.2"/>
</g>
<!-- node0x6504769bea90 -->
<g id="node25" class="node">
<title>node0x6504769bea90</title>
<polygon fill="none" stroke="black" points="896,-38 740,-38 740,0 896,0 896,-38"/>
<text text-anchor="middle" x="818" y="-22.8" font-family="Times,serif" font-size="14.00">NUMBER_LITERAL</text>
<text text-anchor="middle" x="818" y="-7.8" font-family="Times,serif" font-size="14.00">5</text>
</g>
<!-- node0x6504769beae0&#45;&#45;node0x6504769bea90 -->
<g id="edge24" class="edge">
<title>node0x6504769beae0&#45;&#45;node0x6504769bea90</title>
<path fill="none" stroke="black" d="M740.94,-74.94C756.45,-63.88 776.65,-49.48 792.47,-38.2"/>
</g>
<!-- node0x6504769bed40 -->
<g id="node27" class="node">
<title>node0x6504769bed40</title>
<polygon fill="none" stroke="black" points="1006,-259 952,-259 952,-223 1006,-223 1006,-259"/>
<text text-anchor="middle" x="979" y="-237.3" font-family="Times,serif" font-size="14.00">LIST</text>
</g>
<!-- node0x6504769beea0&#45;&#45;node0x6504769bed40 -->
<g id="edge26" class="edge">
<title>node0x6504769beea0&#45;&#45;node0x6504769bed40</title>
<path fill="none" stroke="black" d="M935.04,-295.81C944.16,-284.65 956,-270.16 965.09,-259.03"/>
</g>
<!-- node0x6504769becf0 -->
<g id="node28" class="node">
<title>node0x6504769becf0</title>
<polygon fill="none" stroke="black" points="1054,-185 904,-185 904,-149 1054,-149 1054,-185"/>
<text text-anchor="middle" x="979" y="-163.3" font-family="Times,serif" font-size="14.00">ARRAY_INDEXING</text>
</g>
<!-- node0x6504769bed40&#45;&#45;node0x6504769becf0 -->
<g id="edge27" class="edge">
<title>node0x6504769bed40&#45;&#45;node0x6504769becf0</title>
<path fill="none" stroke="black" d="M979,-222.94C979,-211.63 979,-196.83 979,-185.44"/>
</g>
<!-- node0x6504769bee50 -->
<g id="node31" class="node">
<title>node0x6504769bee50</title>
<polygon fill="none" stroke="black" points="1231,-185 1081,-185 1081,-149 1231,-149 1231,-185"/>
<text text-anchor="middle" x="1156" y="-163.3" font-family="Times,serif" font-size="14.00">ARRAY_INDEXING</text>
</g>
<!-- node0x6504769bed40&#45;&#45;node0x6504769bee50 -->
<g id="edge30" class="edge">
<title>node0x6504769bed40&#45;&#45;node0x6504769bee50</title>
<path fill="none" stroke="black" d="M1006.27,-228.91C1035.07,-217.19 1080.84,-198.57 1114.2,-185"/>
</g>
<!-- node0x6504769bec50 -->
<g id="node29" class="node">
<title>node0x6504769bec50</title>
<polygon fill="none" stroke="black" points="916,-112 810,-112 810,-74 916,-74 916,-112"/>
<text text-anchor="middle" x="863" y="-96.8" font-family="Times,serif" font-size="14.00">IDENTIFIER</text>
<text text-anchor="middle" x="863" y="-81.8" font-family="Times,serif" font-size="14.00">array</text>
</g>
<!-- node0x6504769becf0&#45;&#45;node0x6504769bec50 -->
<g id="edge28" class="edge">
<title>node0x6504769becf0&#45;&#45;node0x6504769bec50</title>
<path fill="none" stroke="black" d="M951.51,-148.94C933.69,-137.88 910.49,-123.48 892.32,-112.2"/>
</g>
<!-- node0x6504769beca0 -->
<g id="node30" class="node">
<title>node0x6504769beca0</title>
<polygon fill="none" stroke="black" points="1090,-112 934,-112 934,-74 1090,-74 1090,-112"/>
<text text-anchor="middle" x="1012" y="-96.8" font-family="Times,serif" font-size="14.00">NUMBER_LITERAL</text>
<text text-anchor="middle" x="1012" y="-81.8" font-family="Times,serif" font-size="14.00">2</text>
</g>
<!-- node0x6504769becf0&#45;&#45;node0x6504769beca0 -->
<g id="edge29" class="edge">
<title>node0x6504769becf0&#45;&#45;node0x6504769beca0</title>
<path fill="none" stroke="black" d="M986.82,-148.94C991.89,-137.88 998.49,-123.48 1003.66,-112.2"/>
</g>
<!-- node0x6504769bed90 -->
<g id="node32" class="node">
<title>node0x6504769bed90</title>
<polygon fill="none" stroke="black" points="1214,-112 1108,-112 1108,-74 1214,-74 1214,-112"/>
<text text-anchor="middle" x="1161" y="-96.8" font-family="Times,serif" font-size="14.00">IDENTIFIER</text>
<text text-anchor="middle" x="1161" y="-81.8" font-family="Times,serif" font-size="14.00">other</text>
</g>
<!-- node0x6504769bee50&#45;&#45;node0x6504769bed90 -->
<g id="edge31" class="edge">
<title>node0x6504769bee50&#45;&#45;node0x6504769bed90</title>
<path fill="none" stroke="black" d="M1157.18,-148.94C1157.95,-137.88 1158.95,-123.48 1159.74,-112.2"/>
</g>
<!-- node0x6504769bee00 -->
<g id="node33" class="node">
<title>node0x6504769bee00</title>
<polygon fill="none" stroke="black" points="1388,-112 1232,-112 1232,-74 1388,-74 1388,-112"/>
<text text-anchor="middle" x="1310" y="-96.8" font-family="Times,serif" font-size="14.00">NUMBER_LITERAL</text>
<text text-anchor="middle" x="1310" y="-81.8" font-family="Times,serif" font-size="14.00">10</text>
</g>
<!-- node0x6504769bee50&#45;&#45;node0x6504769bee00 -->
<g id="edge32" class="edge">
<title>node0x6504769bee50&#45;&#45;node0x6504769bee00</title>
<path fill="none" stroke="black" d="M1192.5,-148.94C1216.24,-137.83 1247.18,-123.37 1271.35,-112.07"/>
</g>
<!-- node0x6504769bef60 -->
<g id="node35" class="node">
<title>node0x6504769bef60</title>
<polygon fill="none" stroke="black" points="1283,-259 1229,-259 1229,-223 1283,-223 1283,-259"/>
<text text-anchor="middle" x="1256" y="-237.3" font-family="Times,serif" font-size="14.00">LIST</text>
</g>
<!-- node0x6504769befb0&#45;&#45;node0x6504769bef60 -->
<g id="edge34" class="edge">
<title>node0x6504769befb0&#45;&#45;node0x6504769bef60</title>
<path fill="none" stroke="black" d="M1221.14,-295.81C1228.37,-284.65 1237.76,-270.16 1244.97,-259.03"/>
</g>
<!-- node0x6504769beef0 -->
<g id="node36" class="node">
<title>node0x6504769beef0</title>
<polygon fill="none" stroke="black" points="1355,-186 1249,-186 1249,-148 1355,-148 1355,-186"/>
<text text-anchor="middle" x="1302" y="-170.8" font-family="Times,serif" font-size="14.00">IDENTIFIER</text>
<text text-anchor="middle" x="1302" y="-155.8" font-family="Times,serif" font-size="14.00">x</text>
</g>
<!-- node0x6504769bef60&#45;&#45;node0x6504769beef0 -->
<g id="edge35" class="edge">
<title>node0x6504769bef60&#45;&#45;node0x6504769beef0</title>
<path fill="none" stroke="black" d="M1266.9,-222.94C1273.97,-211.88 1283.17,-197.48 1290.37,-186.2"/>
</g>
</g>
</svg>
