<?xml version="1.0" encoding="UTF-8" standalone="no"?>
<!DOCTYPE svg PUBLIC "-//W3C//DTD SVG 1.1//EN"
 "http://www.w3.org/Graphics/SVG/1.1/DTD/svg11.dtd">
<!-- Generated by graphviz version 2.43.0 (0)
 -->
<!-- Pages: 1 -->
<svg width="629pt" height="408pt"
 viewBox="0.00 0.00 629.00 408.00" xmlns="http://www.w3.org/2000/svg" xmlns:xlink="http://www.w3.org/1999/xlink">
<g id="graph0" class="graph" transform="scale(1 1) rotate(0) translate(4 404)">
<polygon fill="white" stroke="transparent" points="-4,4 -4,-404 625,-404 625,4 -4,4"/>
<!-- node0x57e3fb9019f0 -->
<g id="node1" class="node">
<title>node0x57e3fb9019f0</title>
<polygon fill="none" stroke="black" points="178,-400 124,-400 124,-364 178,-364 178,-400"/>
<text text-anchor="middle" x="151" y="-378.3" font-family="Times,serif" font-size="14.00">LIST</text>
</g>
<!-- node0x57e3fb9019a0 -->
<g id="node2" class="node">
<title>node0x57e3fb9019a0</title>
<polygon fill="none" stroke="black" points="200,-328 102,-328 102,-292 200,-292 200,-328"/>
<text text-anchor="middle" x="151" y="-306.3" font-family="Times,serif" font-size="14.00">FUNCTION</text>
</g>
<!-- node0x57e3fb9019f0&#45;&#45;node0x57e3fb9019a0 -->
<g id="edge1" class="edge">
<title>node0x57e3fb9019f0&#45;&#45;node0x57e3fb9019a0</title>
<path fill="none" stroke="black" d="M151,-363.7C151,-352.85 151,-338.92 151,-328.1"/>
</g>
<!-- node0x57e3fb901330 -->
<g id="node3" class="node">
<title>node0x57e3fb901330</title>
<polygon fill="none" stroke="black" points="106,-256 0,-256 0,-218 106,-218 106,-256"/>
<text text-anchor="middle" x="53" y="-240.8" font-family="Times,serif" font-size="14.00">IDENTIFIER</text>
<text text-anchor="middle" x="53" y="-225.8" font-family="Times,serif" font-size="14.00">main</text>
</g>
<!-- node0x57e3fb9019a0&#45;&#45;node0x57e3fb901330 -->
<g id="edge2" class="edge">
<title>node0x57e3fb9019a0&#45;&#45;node0x57e3fb901330</title>
<path fill="none" stroke="black" d="M127.28,-291.81C112.32,-280.98 93.04,-267.01 77.87,-256.02"/>
</g>
<!-- node0x57e3fb9013a0 -->
<g id="node4" class="node">
<title>node0x57e3fb9013a0</title>
<polygon fill="none" stroke="black" points="178,-255 124,-255 124,-219 178,-219 178,-255"/>
<text text-anchor="middle" x="151" y="-233.3" font-family="Times,serif" font-size="14.00">LIST</text>
</g>
<!-- node0x57e3fb9019a0&#45;&#45;node0x57e3fb9013a0 -->
<g id="edge3" class="edge">
<title>node0x57e3fb9019a0&#45;&#45;node0x57e3fb9013a0</title>
<path fill="none" stroke="black" d="M151,-291.81C151,-280.65 151,-266.16 151,-255.03"/>
</g>
<!-- node0x57e3fb901950 -->
<g id="node5" class="node">
<title>node0x57e3fb901950</title>
<polygon fill="none" stroke="black" points="264,-255 196,-255 196,-219 264,-219 264,-255"/>
<text text-anchor="middle" x="230" y="-233.3" font-family="Times,serif" font-size="14.00">BLOCK</text>
</g>
<!-- node0x57e3fb9019a0&#45;&#45;node0x57e3fb901950 -->
<g id="edge4" class="edge">
<title>node0x57e3fb9019a0&#45;&#45;node0x57e3fb901950</title>
<path fill="none" stroke="black" d="M170.12,-291.81C182.54,-280.65 198.67,-266.16 211.05,-255.03"/>
</g>
<!-- node0x57e3fb9014b0 -->
<g id="node6" class="node">
<title>node0x57e3fb9014b0</title>
<polygon fill="none" stroke="black" points="197,-182 143,-182 143,-146 197,-146 197,-182"/>
<text text-anchor="middle" x="170" y="-160.3" font-family="Times,serif" font-size="14.00">LIST</text>
</g>
<!-- node0x57e3fb901950&#45;&#45;node0x57e3fb9014b0 -->
<g id="edge5" class="edge">
<title>node0x57e3fb901950&#45;&#45;node0x57e3fb9014b0</title>
<path fill="none" stroke="black" d="M215.48,-218.81C206.04,-207.65 193.8,-193.16 184.39,-182.03"/>
</g>
<!-- node0x57e3fb901610 -->
<g id="node9" class="node">
<title>node0x57e3fb901610</title>
<polygon fill="none" stroke="black" points="316,-182 262,-182 262,-146 316,-146 316,-182"/>
<text text-anchor="middle" x="289" y="-160.3" font-family="Times,serif" font-size="14.00">LIST</text>
</g>
<!-- node0x57e3fb901950&#45;&#45;node0x57e3fb901610 -->
<g id="edge8" class="edge">
<title>node0x57e3fb901950&#45;&#45;node0x57e3fb901610</title>
<path fill="none" stroke="black" d="M244.28,-218.81C253.56,-207.65 265.6,-193.16 274.85,-182.03"/>
</g>
<!-- node0x57e3fb901460 -->
<g id="node7" class="node">
<title>node0x57e3fb901460</title>
<polygon fill="none" stroke="black" points="149,-110 95,-110 95,-74 149,-74 149,-110"/>
<text text-anchor="middle" x="122" y="-88.3" font-family="Times,serif" font-size="14.00">LIST</text>
</g>
<!-- node0x57e3fb9014b0&#45;&#45;node0x57e3fb901460 -->
<g id="edge6" class="edge">
<title>node0x57e3fb9014b0&#45;&#45;node0x57e3fb901460</title>
<path fill="none" stroke="black" d="M158.13,-145.7C150.69,-134.85 141.14,-120.92 133.73,-110.1"/>
</g>
<!-- node0x57e3fb9013f0 -->
<g id="node8" class="node">
<title>node0x57e3fb9013f0</title>
<polygon fill="none" stroke="black" points="169,-38 63,-38 63,0 169,0 169,-38"/>
<text text-anchor="middle" x="116" y="-22.8" font-family="Times,serif" font-size="14.00">IDENTIFIER</text>
<text text-anchor="middle" x="116" y="-7.8" font-family="Times,serif" font-size="14.00">x</text>
</g>
<!-- node0x57e3fb901460&#45;&#45;node0x57e3fb9013f0 -->
<g id="edge7" class="edge">
<title>node0x57e3fb901460&#45;&#45;node0x57e3fb9013f0</title>
<path fill="none" stroke="black" d="M120.55,-73.81C119.63,-62.98 118.45,-49.01 117.52,-38.02"/>
</g>
<!-- node0x57e3fb9015c0 -->
<g id="node10" class="node">
<title>node0x57e3fb9015c0</title>
<polygon fill="none" stroke="black" points="398,-110 180,-110 180,-74 398,-74 398,-110"/>
<text text-anchor="middle" x="289" y="-88.3" font-family="Times,serif" font-size="14.00">ASSIGNMENT_STATEMENT</text>
</g>
<!-- node0x57e3fb901610&#45;&#45;node0x57e3fb9015c0 -->
<g id="edge9" class="edge">
<title>node0x57e3fb901610&#45;&#45;node0x57e3fb9015c0</title>
<path fill="none" stroke="black" d="M289,-145.7C289,-134.85 289,-120.92 289,-110.1"/>
</g>
<!-- node0x57e3fb9016d0 -->
<g id="node13" class="node">
<title>node0x57e3fb9016d0</title>
<polygon fill="none" stroke="black" points="621,-110 441,-110 441,-74 621,-74 621,-110"/>
<text text-anchor="middle" x="531" y="-88.3" font-family="Times,serif" font-size="14.00">RETURN_STATEMENT</text>
</g>
<!-- node0x57e3fb901610&#45;&#45;node0x57e3fb9016d0 -->
<g id="edge12" class="edge">
<title>node0x57e3fb901610&#45;&#45;node0x57e3fb9016d0</title>
<path fill="none" stroke="black" d="M316.29,-155.11C353.87,-144.24 422.52,-124.38 472.09,-110.04"/>
</g>
<!-- node0x57e3fb901500 -->
<g id="node11" class="node">
<title>node0x57e3fb901500</title>
<polygon fill="none" stroke="black" points="293,-38 187,-38 187,0 293,0 293,-38"/>
<text text-anchor="middle" x="240" y="-22.8" font-family="Times,serif" font-size="14.00">IDENTIFIER</text>
<text text-anchor="middle" x="240" y="-7.8" font-family="Times,serif" font-size="14.00">x</text>
</g>
<!-- node0x57e3fb9015c0&#45;&#45;node0x57e3fb901500 -->
<g id="edge10" class="edge">
<title>node0x57e3fb9015c0&#45;&#45;node0x57e3fb901500</title>
<path fill="none" stroke="black" d="M277.14,-73.81C269.66,-62.98 260.02,-49.01 252.44,-38.02"/>
</g>
<!-- node0x57e3fb901570 -->
<g id="node12" class="node">
<title>node0x57e3fb901570</title>
<polygon fill="none" stroke="black" points="467,-38 311,-38 311,0 467,0 467,-38"/>
<text text-anchor="middle" x="389" y="-22.8" font-family="Times,serif" font-size="14.00">NUMBER_LITERAL</text>
<text text-anchor="middle" x="389" y="-7.8" font-family="Times,serif" font-size="14.00">5</text>
</g>
<!-- node0x57e3fb9015c0&#45;&#45;node0x57e3fb901570 -->
<g id="edge11" class="edge">
<title>node0x57e3fb9015c0&#45;&#45;node0x57e3fb901570</title>
<path fill="none" stroke="black" d="M312.95,-73.99C328.21,-63.16 347.95,-49.15 363.49,-38.11"/>
</g>
<!-- node0x57e3fb901660 -->
<g id="node14" class="node">
<title>node0x57e3fb901660</title>
<polygon fill="none" stroke="black" points="591,-38 485,-38 485,0 591,0 591,-38"/>
<text text-anchor="middle" x="538" y="-22.8" font-family="Times,serif" font-size="14.00">IDENTIFIER</text>
<text text-anchor="middle" x="538" y="-7.8" font-family="Times,serif" font-size="14.00">x</text>
</g>
<!-- node0x57e3fb9016d0&#45;&#45;node0x57e3fb901660 -->
<g id="edge13" class="edge">
<title>node0x57e3fb9016d0&#45;&#45;node0x57e3fb901660</title>
<path fill="none" stroke="black" d="M532.69,-73.81C533.76,-62.98 535.14,-49.01 536.22,-38.02"/>
</g>
</g>
</svg>
